<?xml version="1.0" encoding="UTF-8" standalone="no"?>
<!-- Generator: Adobe Illustrator 26.2.1, SVG Export Plug-In . SVG Version: 6.00 Build 0)  -->

<svg
   version="1.1"
   id="Layer_2"
   x="0px"
   y="0px"
   viewBox="0 0 171.25889 222"
   xml:space="preserve"
   sodipodi:docname="MOIALOGO2.svg"
   width="171.25888"
   height="222"
   inkscape:version="1.3.2 (091e20e, 2023-11-25, custom)"
   xmlns:inkscape="http://www.inkscape.org/namespaces/inkscape"
   xmlns:sodipodi="http://sodipodi.sourceforge.net/DTD/sodipodi-0.dtd"
   xmlns:xlink="http://www.w3.org/1999/xlink"
   xmlns="http://www.w3.org/2000/svg"
   xmlns:svg="http://www.w3.org/2000/svg"><defs
   id="defs417" /><sodipodi:namedview
   id="namedview417"
   pagecolor="#ffffff"
   bordercolor="#000000"
   borderopacity="0.25"
   inkscape:showpageshadow="2"
   inkscape:pageopacity="0.0"
   inkscape:pagecheckerboard="0"
   inkscape:deskcolor="#d1d1d1"
   showgrid="false"
   inkscape:zoom="3.270097"
   inkscape:cx="61.160265"
   inkscape:cy="178.28217"
   inkscape:window-width="2560"
   inkscape:window-height="1476"
   inkscape:window-x="-12"
   inkscape:window-y="-12"
   inkscape:window-maximized="1"
   inkscape:current-layer="g197" />
<style
   type="text/css"
   id="style1">
	.st0{fill-rule:evenodd;clip-rule:evenodd;fill:#FFFFFF;}
	.st1{fill-rule:evenodd;clip-rule:evenodd;fill:#1E6E48;}
	.st2{fill-rule:evenodd;clip-rule:evenodd;fill:#D0DB84;}
	.st3{fill-rule:evenodd;clip-rule:evenodd;fill:#936728;}
	.st4{fill:#2D2E2D;}
	
		.st5{clip-path:url(#SVGID_00000094583754990268971060000015767738036844532368_);fill-rule:evenodd;clip-rule:evenodd;fill:#E2CA80;}
	
		.st6{clip-path:url(#SVGID_00000094583754990268971060000015767738036844532368_);fill-rule:evenodd;clip-rule:evenodd;fill:#E2CA7E;}
	
		.st7{clip-path:url(#SVGID_00000094583754990268971060000015767738036844532368_);fill-rule:evenodd;clip-rule:evenodd;fill:#E1C87E;}
	
		.st8{clip-path:url(#SVGID_00000094583754990268971060000015767738036844532368_);fill-rule:evenodd;clip-rule:evenodd;fill:#E1C87D;}
	
		.st9{clip-path:url(#SVGID_00000094583754990268971060000015767738036844532368_);fill-rule:evenodd;clip-rule:evenodd;fill:#E1C87B;}
	
		.st10{clip-path:url(#SVGID_00000094583754990268971060000015767738036844532368_);fill-rule:evenodd;clip-rule:evenodd;fill:#E1C87A;}
	
		.st11{clip-path:url(#SVGID_00000094583754990268971060000015767738036844532368_);fill-rule:evenodd;clip-rule:evenodd;fill:#E1C879;}
	
		.st12{clip-path:url(#SVGID_00000094583754990268971060000015767738036844532368_);fill-rule:evenodd;clip-rule:evenodd;fill:#E0C878;}
	
		.st13{clip-path:url(#SVGID_00000094583754990268971060000015767738036844532368_);fill-rule:evenodd;clip-rule:evenodd;fill:#E1C777;}
	
		.st14{clip-path:url(#SVGID_00000094583754990268971060000015767738036844532368_);fill-rule:evenodd;clip-rule:evenodd;fill:#E1C776;}
	
		.st15{clip-path:url(#SVGID_00000094583754990268971060000015767738036844532368_);fill-rule:evenodd;clip-rule:evenodd;fill:#E0C775;}
	
		.st16{clip-path:url(#SVGID_00000094583754990268971060000015767738036844532368_);fill-rule:evenodd;clip-rule:evenodd;fill:#E1C674;}
	
		.st17{clip-path:url(#SVGID_00000094583754990268971060000015767738036844532368_);fill-rule:evenodd;clip-rule:evenodd;fill:#E1C673;}
	
		.st18{clip-path:url(#SVGID_00000094583754990268971060000015767738036844532368_);fill-rule:evenodd;clip-rule:evenodd;fill:#E1C672;}
	
		.st19{clip-path:url(#SVGID_00000094583754990268971060000015767738036844532368_);fill-rule:evenodd;clip-rule:evenodd;fill:#E1C671;}
	
		.st20{clip-path:url(#SVGID_00000094583754990268971060000015767738036844532368_);fill-rule:evenodd;clip-rule:evenodd;fill:#E1C670;}
	
		.st21{clip-path:url(#SVGID_00000094583754990268971060000015767738036844532368_);fill-rule:evenodd;clip-rule:evenodd;fill:#E0C56E;}
	
		.st22{clip-path:url(#SVGID_00000094583754990268971060000015767738036844532368_);fill-rule:evenodd;clip-rule:evenodd;fill:#E1C46C;}
	
		.st23{clip-path:url(#SVGID_00000094583754990268971060000015767738036844532368_);fill-rule:evenodd;clip-rule:evenodd;fill:#E0C46C;}
	
		.st24{clip-path:url(#SVGID_00000094583754990268971060000015767738036844532368_);fill-rule:evenodd;clip-rule:evenodd;fill:#E0C46A;}
	
		.st25{clip-path:url(#SVGID_00000094583754990268971060000015767738036844532368_);fill-rule:evenodd;clip-rule:evenodd;fill:#DFC369;}
	
		.st26{clip-path:url(#SVGID_00000094583754990268971060000015767738036844532368_);fill-rule:evenodd;clip-rule:evenodd;fill:#DFC368;}
	
		.st27{clip-path:url(#SVGID_00000094583754990268971060000015767738036844532368_);fill-rule:evenodd;clip-rule:evenodd;fill:#DFC366;}
	
		.st28{clip-path:url(#SVGID_00000094583754990268971060000015767738036844532368_);fill-rule:evenodd;clip-rule:evenodd;fill:#DFC265;}
	
		.st29{clip-path:url(#SVGID_00000094583754990268971060000015767738036844532368_);fill-rule:evenodd;clip-rule:evenodd;fill:#DFC264;}
	
		.st30{clip-path:url(#SVGID_00000094583754990268971060000015767738036844532368_);fill-rule:evenodd;clip-rule:evenodd;fill:#DFC263;}
	
		.st31{clip-path:url(#SVGID_00000094583754990268971060000015767738036844532368_);fill-rule:evenodd;clip-rule:evenodd;fill:#DFC162;}
	
		.st32{clip-path:url(#SVGID_00000094583754990268971060000015767738036844532368_);fill-rule:evenodd;clip-rule:evenodd;fill:#DDC161;}
	
		.st33{clip-path:url(#SVGID_00000094583754990268971060000015767738036844532368_);fill-rule:evenodd;clip-rule:evenodd;fill:#DDC060;}
	
		.st34{clip-path:url(#SVGID_00000094583754990268971060000015767738036844532368_);fill-rule:evenodd;clip-rule:evenodd;fill:#DDC05F;}
	.st35{fill-rule:evenodd;clip-rule:evenodd;fill:#A2782B;}
	.st36{fill-rule:evenodd;clip-rule:evenodd;fill:url(#SVGID_00000181054431857786119850000005852050165070586289_);}
	.st37{fill-rule:evenodd;clip-rule:evenodd;fill:#DDC05F;}
	.st38{fill-rule:evenodd;clip-rule:evenodd;fill:url(#SVGID_00000096782125815465826250000017253789371133076376_);}
	.st39{fill-rule:evenodd;clip-rule:evenodd;fill:#2D2E2D;}
	.st40{fill-rule:evenodd;clip-rule:evenodd;fill:#A77745;}
	.st41{fill:#F7F7F7;}
	.st42{fill:#28387C;}
	.st43{fill:#B2AFB3;}
	.st44{fill:#D1DA30;}
	.st45{fill:#73BB44;}
	.st46{fill:#28B7BD;}
	.st47{fill:#59B75E;}
	.st48{fill:#2F89C9;}
	.st49{fill:#213A71;}
</style>
<g
   id="g417"
   transform="translate(-828.84113,-5.75)">
	<g
   id="g197"
   transform="matrix(1.0004505,0,0,1.0004505,-0.37335186,-0.00259009)">
		<path
   class="st0"
   d="m 872.65,213.59 0.24,-101.81 c 0,-5.2 2.93,-4.19 7.34,-4.15 l 0.04,-17.36 c -4.34,-0.11 -7.31,0.93 -7.31,-3 2.27,-11.26 26.13,-31.63 40.94,-34.37 15.45,4.37 28.8,13.37 39.65,28.55 2.13,4.78 4.73,9.46 -5.22,8.68 v 17.24 c 6.57,0.1 7.28,-1.04 7.1,4.51 l 0.54,101.47 z"
   id="path1" />
		<path
   class="st1"
   d="M 959.15,222.54 958.9,111.37 c 0.11,-5.83 -1.54,-8.04 -6.07,-8.16 l -1.29,-0.03 -0.04,-9.45 1.22,-0.11 c 2.69,-0.24 4.5,-1.3 5.38,-3.17 1.42,-3 0.36,-8.1 -2.58,-12.4 -9.59,-13.41 -25.16,-24.24 -41.72,-29.02 -8.12,2.36 -18.48,8.09 -27.17,15.02 -9.76,7.78 -16.01,16.01 -17.15,22.57 -0.25,2.02 0.31,4.03 1.5,5.37 1.04,1.18 2.53,1.8 4.3,1.8 h 0.13 l 1.35,-0.02 v 9.45 l -1.32,0.01 c -2.04,0.01 -3.35,0.43 -4.24,1.34 -1.06,1.09 -1.57,3.02 -1.52,5.74 l 0.37,111.58 -5.06,4.74 -0.04,-117.74 c 0,-4.13 1.63,-6.63 3.01,-8 1.27,-1.27 2.67,-1.96 3.86,-2.27 v -0.45 c -5.1,-1.66 -7.4,-6.74 -7.4,-11.28 0,-7.03 6.43,-16.37 17.63,-25.63 10.32,-8.53 22.47,-15.1 31.69,-17.15 l 0.32,-0.07 0.31,0.08 c 16.85,4.46 35.28,17.07 44.85,30.67 3.26,3.64 5.57,10.72 3.84,16.34 -1.01,3.26 -3.23,5.51 -6.45,6.58 l -0.01,1.15 c 1.31,0.31 2.86,1.07 4.21,2.5 1.59,1.68 3.43,4.83 3.15,10.32 l -0.01,115.47 z"
   id="path2" />
		<g
   id="g3">
			<path
   class="st2"
   d="m 999.56,93.61 -0.72,133.45 -29.9,-0.11 0.01,-114.22 c 0.31,-6.75 -1.95,-11.01 -4.11,-13.51 1.32,-1.55 2.33,-3.4 2.97,-5.5 2.32,-7.52 -0.65,-16.35 -4.7,-21.08 C 952.9,58.28 933.47,45.02 915.72,40.32 l -1.55,-0.41 -1.57,0.35 c -9.93,2.2 -22.86,9.15 -33.72,18.13 -5.44,4.49 -10.04,9.25 -13.3,13.76 -4.08,5.64 -6.14,10.95 -6.14,15.79 0,4.38 1.48,8.38 3.98,11.39 -2.04,2.53 -3.45,6 -3.45,10.47 l 0.04,116.97 -30.04,0.02 -0.33,-128.35 V 98.4 c -0.6,-15.79 -0.96,-25.32 7.75,-39.39 7.53,-12.17 20.46,-24.59 36.42,-34.97 6.31,-4.11 12.79,-7.7 19.25,-10.67 l 0.13,-0.06 c 0.15,-0.07 0.3,-0.14 0.44,-0.2 l 0.04,-0.02 c 0.06,-0.03 0.13,-0.06 0.19,-0.08 l 0.05,-0.02 c 7.67,-3.44 14.78,-5.68 21.13,-6.67 0.47,0.12 1.05,0.27 1.75,0.46 l 1.67,0.47 0.2,0.05 0.16,0.05 c 6.83,1.93 14.18,4.66 21.26,7.89 4.77,2.18 9.38,4.56 13.69,7.08 11.85,6.93 21.54,14.8 28.79,23.41 2.58,3.06 4.88,6.25 6.84,9.48 8.81,14.47 10.15,21.56 10.16,38.4 z"
   id="path3" />
		</g>
		<g
   id="g6">
			<g
   id="g5">
				<path
   class="st3"
   d="m 898.14,78.81 c 3.47,0.61 9.19,3.91 14.52,7.19 -1.63,1.04 -3.27,2.06 -4.92,2.97 -1.03,-1.34 -2.62,-0.3 -1.67,1.2 -1.29,0.81 -3.05,2.21 -3.59,0.53 -1.43,1.54 0.02,3.08 1.41,2.48 1.01,-0.57 2.02,-1.14 3.03,-1.71 0.66,1.7 2.79,0.66 1.77,-0.92 1.67,-1.02 3.61,-2.24 5.65,-3.52 2.04,1.27 3.98,2.49 5.66,3.51 -1.02,1.58 1.11,2.62 1.77,0.92 1.01,0.57 2.02,1.13 3.03,1.7 1.38,0.6 2.83,-0.94 1.4,-2.48 -0.54,1.69 -2.31,0.29 -3.6,-0.52 0.95,-1.49 -0.65,-2.54 -1.67,-1.19 -1.66,-0.91 -3.3,-1.93 -4.93,-2.96 5.33,-3.29 11.04,-6.6 14.51,-7.21 -4.79,-1.16 -10.34,2.39 -16.17,6.15 -5.86,-3.77 -11.41,-7.31 -16.2,-6.14 z"
   id="path4" />
				<path
   class="st4"
   d="m 903.25,93.38 c -0.47,0 -0.91,-0.21 -1.19,-0.59 -0.35,-0.48 -0.44,-1.3 0.35,-2.15 l 0.1,-0.1 0.04,0.13 c 0.12,0.38 0.31,0.6 0.56,0.69 0.63,0.22 1.61,-0.42 2.47,-0.98 0.12,-0.08 0.25,-0.16 0.37,-0.24 -0.46,-0.78 -0.24,-1.43 0.17,-1.71 0.41,-0.27 1.08,-0.25 1.64,0.43 1.68,-0.93 3.34,-1.96 4.75,-2.86 -5.18,-3.19 -10.92,-6.5 -14.38,-7.11 l -0.38,-0.07 0.38,-0.09 c 4.84,-1.18 10.36,2.35 16.2,6.11 5.84,-3.76 11.35,-7.3 16.19,-6.13 l 0.38,0.09 -0.38,0.07 c -3.46,0.61 -9.2,3.94 -14.38,7.13 1.41,0.9 3.07,1.93 4.75,2.86 0.55,-0.68 1.23,-0.71 1.64,-0.43 0.41,0.28 0.63,0.92 0.17,1.71 0.12,0.08 0.24,0.16 0.37,0.24 0.86,0.56 1.84,1.2 2.47,0.98 0.26,-0.09 0.44,-0.32 0.56,-0.69 l 0.04,-0.13 0.1,0.1 c 0.79,0.85 0.7,1.67 0.35,2.15 -0.41,0.56 -1.17,0.75 -1.85,0.45 l -2.95,-1.66 c -0.22,0.49 -0.58,0.79 -1.02,0.84 -0.39,0.04 -0.78,-0.15 -0.98,-0.48 -0.24,-0.38 -0.21,-0.87 0.08,-1.36 -1.18,-0.72 -2.49,-1.54 -3.88,-2.4 -0.54,-0.34 -1.1,-0.69 -1.66,-1.04 -0.52,0.32 -1.03,0.65 -1.53,0.96 -1.43,0.9 -2.78,1.75 -4,2.49 0.29,0.49 0.32,0.98 0.08,1.36 -0.21,0.33 -0.59,0.52 -0.98,0.49 -0.44,-0.04 -0.81,-0.34 -1.02,-0.83 l -2.94,1.66 c -0.24,0.06 -0.47,0.11 -0.69,0.11 z m -0.81,-2.53 c -0.63,0.74 -0.54,1.44 -0.24,1.85 0.36,0.5 1.04,0.66 1.65,0.4 l 3.1,-1.75 0.03,0.09 c 0.19,0.48 0.52,0.78 0.92,0.82 0.33,0.03 0.65,-0.13 0.83,-0.41 0.21,-0.34 0.17,-0.8 -0.13,-1.26 l -0.04,-0.07 0.07,-0.04 c 1.24,-0.75 2.61,-1.61 4.07,-2.53 0.52,-0.32 1.04,-0.66 1.58,-0.99 l 0.04,-0.03 0.04,0.03 c 0.58,0.36 1.15,0.72 1.71,1.07 1.41,0.88 2.75,1.72 3.95,2.44 l 0.07,0.04 -0.04,0.07 c -0.29,0.45 -0.34,0.91 -0.12,1.26 0.17,0.28 0.5,0.44 0.83,0.41 0.4,-0.04 0.73,-0.34 0.92,-0.82 l 0.03,-0.09 3.11,1.75 c 0.6,0.26 1.28,0.1 1.64,-0.4 0.3,-0.41 0.38,-1.1 -0.25,-1.85 -0.14,0.35 -0.35,0.57 -0.62,0.66 -0.71,0.25 -1.72,-0.41 -2.62,-1 -0.15,-0.1 -0.3,-0.19 -0.44,-0.28 l -0.07,-0.04 0.04,-0.07 c 0.46,-0.72 0.28,-1.31 -0.08,-1.56 -0.35,-0.24 -0.96,-0.2 -1.46,0.45 l -0.04,0.06 -0.06,-0.03 c -1.75,-0.96 -3.48,-2.04 -4.93,-2.97 l -0.11,-0.07 0.11,-0.07 c 5.03,-3.11 10.61,-6.36 14.16,-7.14 -4.69,-0.89 -10.06,2.57 -15.73,6.22 l -0.04,0.03 -0.05,-0.03 c -5.67,-3.64 -11.04,-7.09 -15.73,-6.2 3.55,0.78 9.13,4.02 14.17,7.12 l 0.11,0.07 -0.11,0.07 c -1.46,0.93 -3.18,2.01 -4.93,2.97 l -0.06,0.03 -0.04,-0.06 c -0.5,-0.65 -1.1,-0.69 -1.46,-0.45 -0.36,0.24 -0.54,0.83 -0.08,1.56 l 0.04,0.07 -0.07,0.04 c -0.14,0.09 -0.28,0.18 -0.43,0.28 -0.89,0.58 -1.91,1.25 -2.62,1 -0.27,-0.08 -0.48,-0.31 -0.62,-0.65 z"
   id="path5" />
			</g>
		</g>
		<g
   id="g42">
			<g
   id="g41">
				<g
   id="g40">
					<defs
   id="defs6">
						<path
   id="SVGID_1_"
   d="m 920.95,65.17 c -0.31,-1.39 -1.73,-1.86 -3.35,-1.85 0.21,-0.4 0.93,-0.82 1.45,-0.81 -1.16,-1.28 -2.6,-0.75 -3.65,-0.63 -0.08,-0.7 -0.34,-1.36 -0.96,-2.09 -0.52,0.59 -0.93,1.12 -0.98,1.91 -1.66,-0.28 -3.42,-0.17 -4,0.97 0.55,-0.1 1.35,0.11 1.42,0.37 -1.28,0.29 -2.57,0.2 -3.16,2.24 0.57,-0.26 1.19,-0.38 1.85,-0.34 -0.87,0.92 -1.47,2.38 -1.16,4.65 0.62,-0.94 1.18,-1.61 1.94,-2.22 -0.08,0.97 -0.33,2.51 0.02,3.61 0.54,-1.16 0.96,-2.02 1.42,-2.51 0.11,1.2 0.3,2.36 0.81,3.37 0.33,-0.74 0.54,-1.04 0.9,-1.23 l 0.01,8.89 -0.48,-0.01 c -0.16,2.64 2.72,2.59 2.52,0.01 h -0.52 c 0.04,-2.89 0.12,-6.04 0,-8.91 0.34,0.08 0.94,0.42 1.26,0.95 0.34,-1.03 0.46,-2.14 0.41,-3.21 0.76,0.65 1.28,1.56 1.73,2.24 0.31,-1.19 0.1,-2.34 -0.22,-3.56 0.9,0.51 1.41,1.58 1.81,2.38 0.73,-1.35 0.03,-3.41 -1.15,-4.25 0.27,-0.23 1.54,-0.1 2.08,0.03 z" />
					</defs>
					<clipPath
   id="SVGID_00000155130590228872066670000008934855426852222102_">
						<use
   xlink:href="#SVGID_1_"
   style="overflow:visible"
   id="use6" />
					</clipPath>
					
						<rect
   x="907.70001"
   y="78.309998"
   style="clip-rule:evenodd;fill:#e2ca80;fill-rule:evenodd"
   width="13.25"
   height="3.8299999"
   clip-path="url(#SVGID_00000155130590228872066670000008934855426852222102_)"
   id="rect6" />
					
						<rect
   x="907.70001"
   y="77.849998"
   style="clip-rule:evenodd;fill:#e2ca80;fill-rule:evenodd"
   width="13.25"
   height="0.46000001"
   clip-path="url(#SVGID_00000155130590228872066670000008934855426852222102_)"
   id="rect7" />
					
						<rect
   x="907.70001"
   y="77.379997"
   style="clip-rule:evenodd;fill:#e2ca7e;fill-rule:evenodd"
   width="13.25"
   height="0.46000001"
   clip-path="url(#SVGID_00000155130590228872066670000008934855426852222102_)"
   id="rect8" />
					
						<rect
   x="907.70001"
   y="76.919998"
   style="clip-rule:evenodd;fill:#e1c87e;fill-rule:evenodd"
   width="13.25"
   height="0.46000001"
   clip-path="url(#SVGID_00000155130590228872066670000008934855426852222102_)"
   id="rect9" />
					
						<rect
   x="907.70001"
   y="76.459999"
   style="clip-rule:evenodd;fill:#e1c87d;fill-rule:evenodd"
   width="13.25"
   height="0.46000001"
   clip-path="url(#SVGID_00000155130590228872066670000008934855426852222102_)"
   id="rect10" />
					
						<rect
   x="907.70001"
   y="75.989998"
   style="clip-rule:evenodd;fill:#e1c87b;fill-rule:evenodd"
   width="13.25"
   height="0.46000001"
   clip-path="url(#SVGID_00000155130590228872066670000008934855426852222102_)"
   id="rect11" />
					
						<rect
   x="907.70001"
   y="75.529999"
   style="clip-rule:evenodd;fill:#e1c87b;fill-rule:evenodd"
   width="13.25"
   height="0.46000001"
   clip-path="url(#SVGID_00000155130590228872066670000008934855426852222102_)"
   id="rect12" />
					
						<rect
   x="907.70001"
   y="75.059998"
   style="clip-rule:evenodd;fill:#e1c87a;fill-rule:evenodd"
   width="13.25"
   height="0.46000001"
   clip-path="url(#SVGID_00000155130590228872066670000008934855426852222102_)"
   id="rect13" />
					
						<rect
   x="907.70001"
   y="74.599998"
   style="clip-rule:evenodd;fill:#e1c879;fill-rule:evenodd"
   width="13.25"
   height="0.46000001"
   clip-path="url(#SVGID_00000155130590228872066670000008934855426852222102_)"
   id="rect14" />
					
						<rect
   x="907.70001"
   y="74.139999"
   style="clip-rule:evenodd;fill:#e0c878;fill-rule:evenodd"
   width="13.25"
   height="0.46000001"
   clip-path="url(#SVGID_00000155130590228872066670000008934855426852222102_)"
   id="rect15" />
					
						<rect
   x="907.70001"
   y="73.669998"
   style="clip-rule:evenodd;fill:#e1c777;fill-rule:evenodd"
   width="13.25"
   height="0.46000001"
   clip-path="url(#SVGID_00000155130590228872066670000008934855426852222102_)"
   id="rect16" />
					
						<rect
   x="907.70001"
   y="73.209999"
   style="clip-rule:evenodd;fill:#e1c776;fill-rule:evenodd"
   width="13.25"
   height="0.46000001"
   clip-path="url(#SVGID_00000155130590228872066670000008934855426852222102_)"
   id="rect17" />
					
						<rect
   x="907.70001"
   y="72.75"
   style="clip-rule:evenodd;fill:#e0c775;fill-rule:evenodd"
   width="13.25"
   height="0.46000001"
   clip-path="url(#SVGID_00000155130590228872066670000008934855426852222102_)"
   id="rect18" />
					
						<rect
   x="907.70001"
   y="72.279999"
   style="clip-rule:evenodd;fill:#e1c674;fill-rule:evenodd"
   width="13.25"
   height="0.46000001"
   clip-path="url(#SVGID_00000155130590228872066670000008934855426852222102_)"
   id="rect19" />
					
						<rect
   x="907.70001"
   y="71.82"
   style="clip-rule:evenodd;fill:#e1c673;fill-rule:evenodd"
   width="13.25"
   height="0.46000001"
   clip-path="url(#SVGID_00000155130590228872066670000008934855426852222102_)"
   id="rect20" />
					
						<rect
   x="907.70001"
   y="71.360001"
   style="clip-rule:evenodd;fill:#e1c672;fill-rule:evenodd"
   width="13.25"
   height="0.46000001"
   clip-path="url(#SVGID_00000155130590228872066670000008934855426852222102_)"
   id="rect21" />
					
						<rect
   x="907.70001"
   y="70.889999"
   style="clip-rule:evenodd;fill:#e1c671;fill-rule:evenodd"
   width="13.25"
   height="0.46000001"
   clip-path="url(#SVGID_00000155130590228872066670000008934855426852222102_)"
   id="rect22" />
					
						<rect
   x="907.70001"
   y="70.43"
   style="clip-rule:evenodd;fill:#e1c670;fill-rule:evenodd"
   width="13.25"
   height="0.46000001"
   clip-path="url(#SVGID_00000155130590228872066670000008934855426852222102_)"
   id="rect23" />
					
						<rect
   x="907.70001"
   y="69.970001"
   style="clip-rule:evenodd;fill:#e0c56e;fill-rule:evenodd"
   width="13.25"
   height="0.46000001"
   clip-path="url(#SVGID_00000155130590228872066670000008934855426852222102_)"
   id="rect24" />
					
						<rect
   x="907.70001"
   y="69.5"
   style="clip-rule:evenodd;fill:#e1c46c;fill-rule:evenodd"
   width="13.25"
   height="0.46000001"
   clip-path="url(#SVGID_00000155130590228872066670000008934855426852222102_)"
   id="rect25" />
					
						<rect
   x="907.70001"
   y="69.040001"
   style="clip-rule:evenodd;fill:#e0c46c;fill-rule:evenodd"
   width="13.25"
   height="0.46000001"
   clip-path="url(#SVGID_00000155130590228872066670000008934855426852222102_)"
   id="rect26" />
					
						<rect
   x="907.70001"
   y="68.580002"
   style="clip-rule:evenodd;fill:#e0c46a;fill-rule:evenodd"
   width="13.25"
   height="0.46000001"
   clip-path="url(#SVGID_00000155130590228872066670000008934855426852222102_)"
   id="rect27" />
					
						<rect
   x="907.70001"
   y="68.110001"
   style="clip-rule:evenodd;fill:#dfc369;fill-rule:evenodd"
   width="13.25"
   height="0.46000001"
   clip-path="url(#SVGID_00000155130590228872066670000008934855426852222102_)"
   id="rect28" />
					
						<rect
   x="907.70001"
   y="67.650002"
   style="clip-rule:evenodd;fill:#dfc369;fill-rule:evenodd"
   width="13.25"
   height="0.46000001"
   clip-path="url(#SVGID_00000155130590228872066670000008934855426852222102_)"
   id="rect29" />
					
						<rect
   x="907.70001"
   y="67.190002"
   style="clip-rule:evenodd;fill:#dfc368;fill-rule:evenodd"
   width="13.25"
   height="0.46000001"
   clip-path="url(#SVGID_00000155130590228872066670000008934855426852222102_)"
   id="rect30" />
					
						<rect
   x="907.70001"
   y="66.720001"
   style="clip-rule:evenodd;fill:#dfc366;fill-rule:evenodd"
   width="13.25"
   height="0.46000001"
   clip-path="url(#SVGID_00000155130590228872066670000008934855426852222102_)"
   id="rect31" />
					
						<rect
   x="907.70001"
   y="66.260002"
   style="clip-rule:evenodd;fill:#dfc265;fill-rule:evenodd"
   width="13.25"
   height="0.46000001"
   clip-path="url(#SVGID_00000155130590228872066670000008934855426852222102_)"
   id="rect32" />
					
						<rect
   x="907.70001"
   y="65.800003"
   style="clip-rule:evenodd;fill:#dfc264;fill-rule:evenodd"
   width="13.25"
   height="0.46000001"
   clip-path="url(#SVGID_00000155130590228872066670000008934855426852222102_)"
   id="rect33" />
					
						<rect
   x="907.70001"
   y="65.330002"
   style="clip-rule:evenodd;fill:#dfc263;fill-rule:evenodd"
   width="13.25"
   height="0.46000001"
   clip-path="url(#SVGID_00000155130590228872066670000008934855426852222102_)"
   id="rect34" />
					
						<rect
   x="907.70001"
   y="64.870003"
   style="clip-rule:evenodd;fill:#dfc162;fill-rule:evenodd"
   width="13.25"
   height="0.46000001"
   clip-path="url(#SVGID_00000155130590228872066670000008934855426852222102_)"
   id="rect35" />
					
						<rect
   x="907.70001"
   y="64.410004"
   style="clip-rule:evenodd;fill:#ddc161;fill-rule:evenodd"
   width="13.25"
   height="0.46000001"
   clip-path="url(#SVGID_00000155130590228872066670000008934855426852222102_)"
   id="rect36" />
					
						<rect
   x="907.70001"
   y="63.939999"
   style="clip-rule:evenodd;fill:#ddc161;fill-rule:evenodd"
   width="13.25"
   height="0.46000001"
   clip-path="url(#SVGID_00000155130590228872066670000008934855426852222102_)"
   id="rect37" />
					
						<rect
   x="907.70001"
   y="63.48"
   style="clip-rule:evenodd;fill:#ddc060;fill-rule:evenodd"
   width="13.25"
   height="0.46000001"
   clip-path="url(#SVGID_00000155130590228872066670000008934855426852222102_)"
   id="rect38" />
					
						<rect
   x="907.70001"
   y="63.02"
   style="clip-rule:evenodd;fill:#ddc05f;fill-rule:evenodd"
   width="13.25"
   height="0.46000001"
   clip-path="url(#SVGID_00000155130590228872066670000008934855426852222102_)"
   id="rect39" />
					
						<rect
   x="907.70001"
   y="59.790001"
   style="clip-rule:evenodd;fill:#ddc05f;fill-rule:evenodd"
   width="13.25"
   height="3.23"
   clip-path="url(#SVGID_00000155130590228872066670000008934855426852222102_)"
   id="rect40" />
				</g>
				<path
   class="st4"
   d="m 914.28,81.54 c -0.2,0 -0.4,-0.05 -0.59,-0.16 -0.54,-0.32 -0.82,-1 -0.76,-1.89 v -0.08 l 0.48,0.01 -0.01,-8.66 c -0.26,0.19 -0.45,0.48 -0.74,1.12 l -0.07,0.16 -0.08,-0.15 c -0.51,-1.01 -0.7,-2.18 -0.8,-3.21 -0.4,0.48 -0.77,1.26 -1.28,2.34 l -0.09,0.19 -0.06,-0.2 c -0.3,-0.93 -0.18,-2.13 -0.08,-3.1 0.01,-0.12 0.02,-0.24 0.03,-0.35 -0.65,0.55 -1.17,1.16 -1.78,2.08 l -0.12,0.18 -0.03,-0.22 c -0.26,-1.93 0.1,-3.47 1.07,-4.59 -0.58,-0.01 -1.14,0.11 -1.64,0.34 l -0.16,0.08 0.05,-0.17 c 0.52,-1.79 1.57,-1.98 2.68,-2.19 0.14,-0.03 0.29,-0.05 0.43,-0.08 -0.19,-0.17 -0.79,-0.33 -1.27,-0.24 l -0.16,0.03 0.07,-0.15 c 0.5,-0.99 1.95,-1.36 4,-1.03 0.08,-0.78 0.52,-1.33 1,-1.87 l 0.06,-0.07 0.06,0.07 c 0.56,0.66 0.87,1.3 0.97,2.05 0.14,-0.02 0.29,-0.04 0.44,-0.07 0.98,-0.17 2.2,-0.38 3.21,0.73 l 0.12,0.14 h -0.19 c 0,0 -0.01,0 -0.01,0 -0.42,0 -1.02,0.31 -1.29,0.65 1.87,0.03 3.01,0.69 3.28,1.92 l 0.03,0.13 -0.13,-0.03 c -0.51,-0.12 -1.56,-0.22 -1.93,-0.08 1.12,0.88 1.82,2.89 1.07,4.28 l -0.06,0.13 -0.08,-0.16 c -0.35,-0.72 -0.83,-1.69 -1.59,-2.22 0.27,1.07 0.48,2.21 0.17,3.4 l -0.05,0.18 -0.1,-0.15 c -0.08,-0.12 -0.16,-0.24 -0.24,-0.36 -0.37,-0.58 -0.79,-1.22 -1.34,-1.74 0.03,1.08 -0.11,2.11 -0.42,3.04 l -0.06,0.17 -0.09,-0.15 c -0.29,-0.49 -0.79,-0.78 -1.11,-0.89 0.1,2.35 0.06,4.86 0.02,7.29 -0.01,0.48 -0.01,0.96 -0.02,1.43 h 0.51 l 0.01,0.07 c 0.07,0.86 -0.2,1.54 -0.73,1.86 -0.18,0.13 -0.39,0.19 -0.6,0.19 z m -1.19,-1.97 c -0.03,0.78 0.22,1.39 0.69,1.66 0.32,0.19 0.7,0.19 1.02,-0.01 0.46,-0.28 0.7,-0.88 0.65,-1.64 h -0.52 V 79.5 c 0.01,-0.5 0.01,-1 0.02,-1.51 0.04,-2.47 0.08,-5.02 -0.02,-7.39 v -0.11 l 0.1,0.02 c 0.36,0.08 0.89,0.4 1.22,0.85 0.29,-0.93 0.4,-1.95 0.35,-3.02 l -0.01,-0.19 0.15,0.12 c 0.64,0.55 1.1,1.27 1.51,1.9 0.04,0.07 0.09,0.14 0.13,0.2 0.25,-1.16 0.01,-2.28 -0.26,-3.34 l -0.05,-0.19 0.17,0.1 c 0.86,0.49 1.38,1.49 1.77,2.26 0.59,-1.33 -0.14,-3.24 -1.2,-4 l -0.08,-0.06 0.08,-0.07 c 0.31,-0.27 1.49,-0.14 2.04,-0.03 -0.4,-1.37 -1.97,-1.67 -3.24,-1.67 0,0 0,0 0,0 h -0.13 l 0.06,-0.12 c 0.2,-0.39 0.83,-0.77 1.34,-0.84 -0.92,-0.91 -1.99,-0.72 -2.94,-0.56 -0.18,0.03 -0.36,0.06 -0.53,0.08 l -0.08,0.01 -0.01,-0.08 c -0.09,-0.72 -0.36,-1.34 -0.88,-1.97 -0.47,0.53 -0.85,1.04 -0.9,1.79 l -0.01,0.09 -0.09,-0.02 c -0.92,-0.16 -3.08,-0.38 -3.83,0.79 0.55,-0.04 1.26,0.15 1.35,0.45 l 0.02,0.08 -0.08,0.02 c -0.18,0.04 -0.37,0.07 -0.55,0.11 -1.07,0.19 -1.99,0.36 -2.5,1.9 0.53,-0.22 1.11,-0.31 1.73,-0.28 l 0.18,0.01 -0.12,0.13 c -0.98,1.05 -1.37,2.51 -1.17,4.37 0.6,-0.89 1.16,-1.51 1.84,-2.06 l 0.15,-0.12 -0.02,0.19 c -0.01,0.17 -0.03,0.35 -0.05,0.55 -0.09,0.88 -0.2,1.96 0.01,2.82 0.52,-1.1 0.9,-1.87 1.34,-2.33 l 0.13,-0.13 0.02,0.18 c 0.09,1.01 0.25,2.17 0.73,3.18 0.31,-0.65 0.52,-0.92 0.86,-1.11 l 0.12,-0.07 0.01,9.11 z"
   id="path40" />
			</g>
		</g>
		<g
   id="g48">
			<g
   id="g44">
				<polygon
   class="st3"
   points="947.5,140.58 948.23,141.34 923.01,167.59 922.28,166.83 "
   id="polygon42" />
				<polygon
   class="st3"
   points="943.5,122.85 944.39,123.39 920.7,165.78 919.81,165.24 "
   id="polygon43" />
				<polygon
   class="st3"
   points="937.41,84.71 938.41,84.99 917.91,164.72 916.91,164.44 "
   id="polygon44" />
			</g>
			<polygon
   class="st3"
   points="915.02,163.86 914,163.86 913.64,101.59 914.66,101.58 "
   id="polygon45" />
			<polygon
   class="st3"
   points="881.2,140.63 880.47,141.39 905.72,167.6 906.45,166.85 "
   id="polygon46" />
			<polygon
   class="st3"
   points="885.18,122.9 884.29,123.43 908.04,165.78 908.93,165.25 "
   id="polygon47" />
			<polygon
   class="st3"
   points="891.21,84.75 890.22,85.02 910.83,164.72 911.82,164.44 "
   id="polygon48" />
		</g>
		<path
   class="st35"
   d="m 898.03,170.99 c 8.71,2.08 7.81,-4.01 16.73,-0.14 l -0.23,26.67 c -13.23,-7.49 -14.72,2.52 -30.5,-2.38 z"
   id="path48" />
		<path
   class="st35"
   d="m 931.36,170.96 c -8.71,2.09 -7.82,-4 -16.73,-0.12 l 0.27,26.67 c 13.23,-7.51 14.73,2.5 30.5,-2.43 z"
   id="path49" />
		
			<linearGradient
   id="SVGID_00000116198522151525185730000011164608698729970087_"
   gradientUnits="userSpaceOnUse"
   x1="901.90698"
   y1="164.709"
   x2="901.90698"
   y2="201.5257">
			<stop
   offset="0"
   style="stop-color:#D0DB84"
   id="stop49" />
			<stop
   offset="1"
   style="stop-color:#1E6E48"
   id="stop50" />
		</linearGradient>
		<path
   style="clip-rule:evenodd;fill:url(#SVGID_00000116198522151525185730000011164608698729970087_);fill-rule:evenodd"
   d="m 900.68,173.83 c 7.04,1.09 5.96,-3.14 13.12,-0.96 -0.15,6.7 -0.3,13.4 -0.45,20.1 -10.82,-4.66 -15.61,3.35 -23.34,0.32 z"
   id="path50" />
		<path
   class="st37"
   d="m 906.76,172.68 c 2.66,-1.16 4.65,-0.97 7.45,-0.12 l -0.47,21.03 c -5.11,-2.2 -8.99,-1.93 -14.12,-0.37 -3.61,1.1 -6.52,1.72 -10.18,0.28 l 11.03,-20.13 c 2.35,0.38 4.13,0.26 6.29,-0.69 z m 0.32,0.77 v 0 c -1.43,0.63 -2.96,1.29 -6.19,0.84 l -10.29,18.77 c 3.17,1.08 5.88,0.25 8.8,-0.64 3.74,-1.14 7.79,-2.38 13.57,-0.06 l 0.43,-19.18 c -3.45,-0.99 -4.83,-0.38 -6.32,0.27 z"
   id="path51" />
		
			<linearGradient
   id="SVGID_00000173843680527053863210000008841159624486038930_"
   gradientUnits="userSpaceOnUse"
   x1="928.36267"
   y1="164.70731"
   x2="928.36267"
   y2="201.487">
			<stop
   offset="0"
   style="stop-color:#D0DB84"
   id="stop51" />
			<stop
   offset="1"
   style="stop-color:#1E6E48"
   id="stop52" />
		</linearGradient>
		<path
   style="clip-rule:evenodd;fill:url(#SVGID_00000173843680527053863210000008841159624486038930_);fill-rule:evenodd"
   d="m 929.58,173.81 c -7.03,1.11 -5.97,-3.13 -13.12,-0.94 0.16,6.7 0.32,13.4 0.48,20.1 10.82,-4.68 15.61,3.32 23.34,0.28 z"
   id="path52" />
		<path
   class="st37"
   d="m 929.37,174.27 c -3.23,0.46 -4.76,-0.2 -6.19,-0.83 -1.49,-0.65 -2.88,-1.25 -6.32,-0.26 l 0.46,19.18 c 5.77,-2.32 9.83,-1.09 13.57,0.04 2.92,0.88 5.63,1.71 8.8,0.63 z m -5.88,-1.6 v 0 c 2.17,0.94 3.94,1.06 6.3,0.69 l 11.06,20.11 c -3.66,1.44 -6.57,0.83 -10.18,-0.27 -5.13,-1.56 -9.02,-1.82 -14.12,0.39 l -0.5,-21.03 c 2.79,-0.86 4.78,-1.05 7.44,0.11 z"
   id="path53" />
		<polygon
   class="st0"
   points="868.74,220.19 870.96,218.07 958.24,218 960.19,220.12 "
   id="polygon53" />
		<polygon
   class="st0"
   points="872.24,216.38 874.36,214.25 957.93,214.19 959.8,216.31 "
   id="polygon54" />
		<polygon
   class="st0"
   points="865.69,225.29 868.05,223.41 960.91,223.34 963,225.22 "
   id="polygon55" />
		<path
   class="st39"
   d="m 882.45,199.31 h 3.42 c -1.03,-0.28 -2.03,-0.68 -3.01,-1.25 l 0.91,-2.81 c 16.5,4.51 19.31,-5.45 30.96,2.53 12.42,-8 15.14,2.16 30.85,-2.57 l 0.82,2.75 c -1.56,0.56 -3.15,1 -4.79,1.31 h 5.03 v 1.94 l -29.88,0.02 c -1.62,-1.84 -2.42,-1.8 -4,0 l -30.32,0.02 z m 16.19,-0.02 v 0 l 10.79,-0.01 c -3.31,-1.77 -8.36,-1.23 -10.79,0.01 z m 21.04,-0.01 v 0 l 10.93,-0.01 c -4.43,-1.77 -8.13,-1.19 -10.93,0.01 z m -6.09,-1.01 v 0 l -0.01,-0.01 0.02,-0.04 c -4.61,-3.92 -8.81,-3.12 -13.72,-2.18 -4.37,0.84 -9.31,1.79 -15.61,-0.42 l -0.03,0.24 c 6.3,2.2 11.25,1.25 15.62,0.41 4.9,-0.94 9.09,-1.75 13.7,2.19 l 0.03,-0.07 -0.01,-0.01 0.02,-0.04 -0.03,-0.02 z M 884,196.39 v 0 c 6.2,2.1 11.07,1.16 15.4,0.33 4.97,-0.95 9.21,-1.77 13.89,2.35 l 0.03,-0.07 -0.01,-0.01 0.02,-0.04 -0.03,-0.02 0.02,-0.05 -0.01,-0.01 0.02,-0.04 c -4.69,-4.11 -8.93,-3.3 -13.91,-2.34 -4.32,0.83 -9.19,1.77 -15.38,-0.34 z m -0.18,0.42 v 0 c 6.18,2.09 11.05,1.15 15.37,0.33 4.98,-0.96 9.22,-1.77 13.92,2.37 l 0.03,-0.07 -0.01,-0.01 0.02,-0.04 -0.03,-0.02 0.02,-0.05 -0.01,-0.01 0.02,-0.04 c -4.7,-4.13 -8.95,-3.32 -13.93,-2.36 -4.31,0.83 -9.17,1.76 -15.35,-0.33 z m -0.2,0.42 v 0 c 6.18,2.09 11.05,1.15 15.37,0.33 4.98,-0.96 9.22,-1.77 13.91,2.37 l 0.03,-0.07 -0.01,-0.01 0.02,-0.04 -0.03,-0.02 0.02,-0.05 -0.01,-0.01 0.02,-0.04 c -4.7,-4.13 -8.95,-3.32 -13.93,-2.36 -4.31,0.83 -9.17,1.76 -15.35,-0.33 z m -0.17,0.39 v 0 c 6.18,2.09 11.05,1.15 15.37,0.32 4.98,-0.96 9.22,-1.77 13.92,2.37 l 0.03,-0.07 -0.01,-0.01 0.02,-0.04 -0.03,-0.02 0.02,-0.05 -0.01,-0.01 0.02,-0.04 c -4.7,-4.13 -8.95,-3.32 -13.93,-2.36 -4.31,0.83 -9.17,1.76 -15.35,-0.33 z m -0.18,0.41 v 0 c 6.18,2.09 11.05,1.15 15.37,0.33 4.98,-0.95 9.22,-1.77 13.92,2.37 l 0.03,-0.07 -0.01,-0.01 0.02,-0.04 -0.03,-0.02 0.02,-0.05 -0.01,-0.01 0.02,-0.04 c -4.7,-4.13 -8.95,-3.32 -13.93,-2.36 -4.31,0.83 -9.17,1.76 -15.35,-0.33 z m 32.55,0.33 v 0 c 0.04,0.09 -0.01,0.15 0.04,0.25 4.6,-4.01 8.8,-3.25 13.7,-2.38 4.38,0.84 9.32,1.79 15.63,-0.41 -0.04,-0.08 0.01,-0.15 -0.03,-0.24 -6.3,2.2 -11.24,1.25 -15.61,0.4 -4.92,-0.87 -9.12,-1.62 -13.73,2.38 z m 29.59,-2.02 v 0 c -0.04,-0.08 0.01,-0.14 -0.03,-0.24 -6.19,2.11 -11.06,1.18 -15.38,0.36 -4.97,-0.95 -9.22,-1.75 -13.91,2.36 l 0.02,0.04 -0.02,0.01 0.02,0.05 -0.03,0.02 0.02,0.04 V 199 l 0.03,0.07 c 4.68,-4.13 8.92,-3.32 13.89,-2.37 4.32,0.82 9.2,1.75 15.39,-0.36 z m 0.19,0.42 v 0 l -0.03,-0.24 c -6.17,2.1 -11.04,1.17 -15.35,0.35 -4.98,-0.95 -9.24,-1.76 -13.93,2.38 l 0.02,0.04 -0.02,0.01 0.02,0.05 -0.03,0.02 0.02,0.04 -0.02,0.01 0.03,0.07 c 4.69,-4.15 8.93,-3.34 13.91,-2.39 4.33,0.83 9.2,1.76 15.38,-0.34 z m 0.19,0.42 v 0 c -0.04,-0.13 0,-0.1 -0.03,-0.24 -6.18,2.1 -11.04,1.17 -15.35,0.35 -4.98,-0.95 -9.24,-1.76 -13.93,2.38 l 0.02,0.04 -0.01,0.01 0.02,0.05 -0.03,0.02 0.02,0.04 -0.01,0.01 0.03,0.07 c 4.69,-4.15 8.93,-3.34 13.91,-2.39 4.31,0.83 9.18,1.76 15.36,-0.34 z m 0.18,0.39 v 0 c -0.03,-0.08 0.01,-0.15 -0.03,-0.24 -6.18,2.1 -11.04,1.17 -15.35,0.35 -4.98,-0.95 -9.23,-1.76 -13.93,2.38 l 0.02,0.04 -0.02,0.01 0.02,0.05 -0.03,0.02 0.02,0.04 -0.02,0.01 0.03,0.07 c 4.69,-4.15 8.93,-3.34 13.91,-2.39 4.33,0.83 9.2,1.76 15.38,-0.34 z m 0.18,0.41 v 0 c -0.04,-0.08 0.01,-0.14 -0.03,-0.24 -6.18,2.1 -11.04,1.17 -15.35,0.35 -4.98,-0.95 -9.24,-1.76 -13.93,2.38 l 0.02,0.04 -0.01,0.01 0.02,0.05 -0.03,0.02 0.02,0.04 -0.01,0.01 0.03,0.07 c 4.69,-4.15 8.93,-3.34 13.91,-2.39 4.31,0.83 9.18,1.76 15.36,-0.34 z"
   id="path55" />
		<path
   class="st3"
   d="m 905.82,170.24 c 3.27,-1.32 5.61,-1.01 8.87,0.37 3.26,-1.39 5.6,-1.7 8.87,-0.38 2.76,1.1 4.94,1.23 7.88,0.52 l 14.22,24.45 c -5.69,1.78 -10.25,1.83 -15.91,0.47 -5.81,-1.39 -9.63,-0.91 -15.04,2.17 v 0 0 0 0 c -5.41,-3.06 -9.23,-3.55 -15.04,-2.14 -5.67,1.37 -10.22,1.32 -15.91,-0.44 l 14.19,-24.47 c 2.94,0.69 5.12,0.56 7.87,-0.55 z m 9.13,0.67 v 0 l -0.07,7.59 0.19,18.69 c 6.84,-3.81 10.54,-2.92 14.77,-1.9 3.77,0.91 7.97,1.92 15.27,-0.32 l -13.84,-23.79 c -4.01,0.94 -5.99,0.14 -7.84,-0.6 -2.06,-0.82 -3.95,-1.58 -8.48,0.33 z m -0.43,7.6 v 0 l -0.08,-7.59 c -4.53,-1.91 -6.43,-1.15 -8.48,-0.32 -1.85,0.74 -3.83,1.54 -7.84,0.61 l -13.81,23.82 c 7.3,2.22 11.5,1.21 15.27,0.3 4.23,-1.02 7.93,-1.91 14.77,1.88 z"
   id="path56" />
		<path
   class="st2"
   d="m 867.68,87.84 c 0,4.72 2.85,7.55 7.4,7.7 v 6.76 c -1.2,-0.05 -7.13,-0.07 -7.13,7.2 l 0.41,110.89 1.76,-1.8 -0.24,-107.71 c 0,-5.66 3.13,-6.59 7.54,-6.55 L 877.39,93.5 c -4.34,0.02 -7.51,-1.67 -7.51,-5.93 2.67,-15.52 27.43,-32.95 44.04,-37.62 15.45,4.37 30.3,14.02 41.15,29.2 4.19,6.67 5.33,14.76 -4.31,13.91 v 11.64 c 7.46,-0.03 7.5,1.76 7.4,7.28 l 0.27,105.99 2.52,2.72 -0.25,-108.44 c 0.2,-5.34 -1.06,-9.91 -7.5,-9.87 l -0.01,-7.02 c 10.58,-0.87 7.87,-12.45 3.62,-18.05 -9.08,-12.94 -25.9,-25.64 -42.67,-29.6 -15.35,1.77 -46.46,25.56 -46.46,40.13 z"
   id="path57" />
		<path
   class="st40"
   d="m 870.01,87.29 c 0,4.72 2.91,6.28 7.54,5.97 v 11.22 c -1.2,-0.05 -7.46,-0.93 -7.46,6.34 l 0.09,104.72 2.39,-2.13 0.24,-101.81 c 0,-5.2 2.93,-4.19 7.34,-4.15 l 0.04,-17.36 c -4.34,-0.11 -7.31,0.93 -7.31,-3 2.27,-11.26 26.13,-31.63 40.94,-34.37 15.45,4.37 28.8,13.37 39.65,28.55 2.13,4.78 4.73,9.46 -5.22,8.68 v 17.24 c 6.57,0.1 7.28,-1.04 7.1,4.51 l 0.54,101.47 2.52,2.72 -0.18,-103.92 c 0.4,-6 -1.23,-7.71 -7.53,-7.34 l 0.06,-11.52 c 10.3,0.4 8.26,-8.78 4.02,-14.39 -9.08,-12.94 -24.1,-24.79 -40.87,-28.76 -15.35,1.79 -41.7,22.89 -43.9,37.33 z"
   id="path58" />
		<path
   class="st39"
   d="m 868.3,222.86 v -2.81 l 1.79,-1.71 -0.01,-2.76 2.3,-2.31 83.79,-0.06 2.22,2.5 v 2.11 l 2.37,2.73 v 2.22 l 2.91,2.68 v 2.23 l -98.63,0.07 v -2.23 z m 2.46,-4.79 v 0 l -2.21,2.13 91.45,-0.07 -1.96,-2.12 z m 1.72,-4.53 v 0 l -2.11,2.13 87.56,-0.06 -1.87,-2.12 z m -4.43,9.87 v 0 l -2.36,1.88 97.31,-0.07 -2.09,-1.88 z"
   id="path59" />
		<path
   class="st3"
   d="m 870.01,87.29 c 0,4.72 2.91,6.28 7.54,5.97 v 11.22 c -1.2,-0.05 -7.46,-0.93 -7.46,6.34 l 0.09,104.72 2.39,-2.13 0.24,-101.81 c 0,-5.2 2.93,-4.19 7.34,-4.15 l 0.04,-17.36 c -4.34,-0.11 -7.31,0.93 -7.31,-3 2.27,-11.26 26.13,-31.63 40.94,-34.37 15.45,4.37 28.8,13.37 39.65,28.55 2.13,4.78 4.73,9.46 -5.22,8.68 v 17.24 c 6.57,0.1 7.28,-1.04 7.1,4.51 l 0.54,101.47 2.52,2.72 -0.18,-103.92 c 0.4,-6 -1.23,-7.71 -7.53,-7.34 l 0.06,-11.52 c 10.3,0.4 8.26,-8.78 4.02,-14.39 -9.08,-12.94 -24.1,-24.79 -40.87,-28.76 -15.35,1.79 -41.7,22.89 -43.9,37.33 z"
   id="path60" />
		<path
   class="st39"
   d="m 846.93,92.79 c -1.01,1.71 -3.7,3.05 -5.67,2.21 -3.48,-1.49 -3.99,-6.88 -0.83,-9.32 0.1,-0.1 0.96,-0.89 0.14,0.33 -0.59,1.65 -0.77,5.31 0.8,8.13 1.68,-0.22 4.79,-2.19 4.83,-4.86 -0.15,-1.44 -0.9,-4.88 -1.31,-6.75 0.53,0.3 1.15,0.85 1.67,1.21 0.25,2.22 1.38,6.39 1.95,8.89 0.37,1.6 0.75,3.11 0.91,4.34 0.86,0.23 2.31,0.76 3.15,1.36 2.28,1.96 5.15,6.22 5.81,9.74 0.54,2.91 -1.57,5.37 -4.39,5.49 -2.24,0.1 -4.72,-0.85 -6.56,-2.2 -1.22,-0.8 -1.71,-1.44 -0.09,-0.46 1.88,1.21 4.4,2.39 6.6,1.43 1.55,-0.67 2.36,-2.32 2.35,-3.94 -0.03,-3.17 -3.6,-8.02 -5.7,-10.42 -0.66,0.13 -0.76,0.23 -1.03,0.36 0.1,1.68 0.03,3.01 -0.42,3.77 -0.9,1.49 -2.77,0.98 -3.9,0 -1.74,-1.49 -1.76,-4.08 2.29,-5.27 -0.17,-1.83 -0.39,-2.99 -0.6,-4.04 z m 0.55,6.21 c -1.76,1.05 -1.55,2.02 -0.72,2.61 0.69,-0.28 0.71,-1.76 0.72,-2.61 z"
   id="path61" />
		<path
   class="st39"
   d="m 847.95,174.69 2.45,0.76 c 0.39,-0.34 0.52,-0.46 0.89,-0.69 0.58,0.71 0.28,2.7 -0.77,3.1 -0.24,0.12 -0.61,-0.02 -0.93,-0.14 -1.03,-0.43 -0.74,0.03 -0.2,0.32 0.72,0.35 1.21,0.57 1.74,1.03 1.48,1.13 1.3,3.44 0.22,3.97 -0.26,0.13 -0.85,0.09 -1.23,-0.06 -0.6,-0.24 -0.59,0.1 -0.16,0.7 0.33,0.35 1.17,1.13 1.45,1.55 1.69,2.32 2.12,5.12 -0.14,6.47 -1.2,0.72 -2.61,0.78 -3.96,0.88 -4.32,0.34 -10.69,0.49 -14.4,2.01 0.58,0.26 2,0.76 2.22,0.87 3.86,-1.02 7.17,-1.23 12.27,-1.59 1.75,-0.12 3.59,-0.16 5.21,-0.98 3.39,-1.74 2.64,-6.01 -0.09,-8.36 -0.33,-0.39 -0.38,-0.49 -0.09,-0.46 2.93,-0.15 2.49,-4.45 -0.21,-5.22 -0.7,-0.35 -0.05,-0.18 0.26,-0.31 1.47,-0.46 1.68,-2.8 0.57,-3.83 -0.94,-0.87 -3.85,-1.34 -5.1,-0.02 z"
   id="path62" />
		<path
   class="st39"
   d="m 844.38,63.16 c 0.97,-0.07 0.8,0.26 0.48,0.4 -0.2,0.13 -0.49,0.2 -0.68,0.32 -0.4,0.21 -0.23,0.16 0.17,0.32 2.17,0.59 5.31,0.62 11.13,2.45 0.73,0.25 2.7,1.2 3.15,2 0.89,1.6 1.01,4.98 -1.72,5.73 -1.43,0.45 -3.36,0.13 -4.78,-0.06 -0.46,-0.07 -0.3,-0.03 0.18,0.17 0.66,0.24 1.41,0.53 1.84,0.9 1.64,1.38 3.52,6.7 3.63,9.48 0.09,1.74 -0.82,2.48 -2,2.71 -2.02,0.45 -4.88,-1.66 -6.42,-3.01 -0.51,-0.45 -0.43,-0.59 0.06,-0.3 1.24,0.85 3.12,2.54 4.65,2.45 0.78,-0.07 1.45,-0.49 1.68,-1.74 0.35,-1.96 -1.05,-7.53 -3.73,-10.17 -0.6,-0.59 -0.52,-0.51 -1.33,-0.5 -2.83,0.04 -6.67,0.43 -8.97,0.77 -0.39,-0.16 -1.71,-0.96 -2.1,-1.13 2.22,-1.07 7.19,-1.19 10.13,-0.96 1.43,0.11 2.4,0.38 3.85,0.37 2.5,0.14 4.8,-1.26 3.31,-5.15 -6.42,-1.37 -8.65,-1.53 -15.29,-3.09 -0.3,-0.03 -0.63,0.07 -0.73,0.19 -0.12,-0.1 -1.13,-1.19 -1.69,-1.69 0.66,-0.14 4.65,-0.41 5.18,-0.46 z"
   id="path63" />
		<path
   class="st39"
   d="m 902.89,14.48 c 0.26,0.12 0.57,0.35 0.72,0.47 0.38,0.67 0.87,1.32 1.53,2.13 2.83,3.54 8.45,8.6 10.23,11.26 0.44,0.66 0.46,0.91 0.68,1.62 0.32,1.05 0.37,0.26 0.37,-0.59 -0.17,-4.98 -7.85,-10.01 -10.19,-13.41 -0.14,-0.24 -0.15,-0.3 0.03,-0.3 0.22,0 1.16,0.2 1.39,0.26 0.47,0.15 0.28,-0.26 -0.16,-0.51 -0.33,-0.29 -4.19,-2.99 -4.57,-3.15 -0.03,0.37 -0.03,1.98 -0.03,2.22 z"
   id="path64" />
		<path
   class="st39"
   d="m 955.4,29.4 c 0.15,0.25 0.26,0.6 0.32,0.79 -0.25,6.84 2.39,14.19 1.73,19.89 -0.08,0.65 -0.07,0.99 -0.19,1.58 -0.22,0.69 -0.04,0.45 0.27,-0.09 0.33,-0.58 0.73,-1.25 0.91,-1.97 1.51,-4.84 -0.85,-11.52 -1.18,-16.7 0.02,-0.28 0.04,-0.34 0.19,-0.23 0.18,0.13 0.69,0.7 0.84,0.88 0.22,0.34 0.31,0.04 0.23,-0.26 -0.02,-0.07 -0.08,-0.42 -0.16,-0.71 -0.42,-1.41 -1.61,-4.88 -1.8,-5.17 -0.17,0.19 -1.03,1.8 -1.16,1.99 z"
   id="path65" />
		<path
   class="st39"
   d="m 834.62,161.84 1.29,0.05 c 0.14,-0.3 0.12,-0.38 0.26,-0.55 6.53,-3.97 8.69,-7.93 14.25,-11.05 0.64,-0.36 0.97,-0.55 1.6,-0.78 0.78,-0.2 0.44,-0.24 -0.25,-0.21 -0.74,0.02 -1.6,0.06 -2.39,0.32 -0.89,0.29 -1.65,0.76 -2.3,1.13 -3.23,1.78 -5.9,5.1 -9.75,8.02 -0.35,0.26 -0.2,-0.39 -0.08,-0.76 0.07,-0.24 0.14,-0.45 0.2,-0.7 0.18,-0.43 -0.15,-0.34 -0.38,-0.07 -0.78,0.9 -2.13,2.93 -2.94,3.99 -0.54,0.71 -0.25,0.53 0.49,0.61 z"
   id="path66" />
		<path
   class="st39"
   d="m 969.49,37.36 -1.52,0.41 c -0.04,0.2 -0.01,0.43 -0.23,0.98 -3.08,3.93 -5.39,8.5 -8.68,12.52 -0.62,0.76 -0.95,1.24 -1.82,1.5 -3.11,0.82 -7.28,-0.04 -10.61,-1.04 -0.95,-0.25 -0.69,-0.04 0.59,0.64 3.15,1.91 6.18,3.31 9.22,2.04 2.84,-1.18 5.4,-4.16 7.11,-6.88 1.11,-1.67 2.24,-3.45 3.7,-5.54 0.25,-0.3 0.27,-0.19 0.27,0.07 -0.01,0.32 -0.01,0.45 -0.04,0.75 -0.09,0.79 0.28,0.63 0.63,-0.19 0.51,-1.2 1.26,-3.77 1.67,-4.86 0.2,-0.55 0.26,-0.57 -0.29,-0.4 z"
   id="path67" />
		<path
   class="st39"
   d="m 833.63,148.03 1.25,0.74 c 0.23,-0.17 0.44,-0.31 0.62,-0.35 5.43,-0.15 8.79,-1.1 14.11,-1.49 0.95,-0.07 1.61,-0.06 2.4,0.4 2.74,1.74 4.02,5.03 5.67,8.21 0.5,0.88 0.46,0.54 0.03,-0.89 -1.17,-4.85 -1.89,-7.88 -8.01,-8.6 -5.58,-0.43 -5.95,0.28 -11.49,0.79 -0.39,0.02 -0.42,-0.02 -0.23,-0.2 0.22,-0.22 0.32,-0.31 0.54,-0.49 0.6,-0.49 0.23,-0.65 -0.57,-0.33 -1.19,0.46 -3.18,1.26 -4.22,1.71 -0.56,0.24 -0.61,0.21 -0.1,0.5 z"
   id="path68" />
		<path
   class="st39"
   d="m 997.21,129.57 c -0.58,-0.32 -1.33,-0.59 -1.91,-0.92 -0.3,0.26 -0.28,0.29 -0.58,0.4 -2.61,0.15 -6.28,0.65 -12.85,1.69 -0.72,-1.22 -0.41,-3.3 1.3,-3.64 0.76,0.01 0.42,-0.31 -0.18,-0.54 -0.46,-0.17 -0.96,-0.3 -1.25,-0.46 -1.2,-0.7 -1.11,-2.71 -0.13,-3.27 0.36,0.07 0.75,0.34 1.11,0.45 0.5,0.17 0.61,-0.07 0.06,-0.42 -0.56,-0.35 -0.79,-0.53 -1.52,-1.14 -1.09,-0.91 -1.21,-3.39 0.28,-3.57 0.33,0.03 0.57,0.14 0.84,0.24 0.42,0.24 0.77,0.23 0.47,-0.23 -1,-1.46 -1.74,-4.01 -1.88,-4.84 3.07,-1.69 3.89,-4.02 1.71,-5.5 -1.02,-0.69 -2.57,-1.13 -3.67,-0.12 -0.77,0.72 -1.05,2.57 -0.36,4.48 -0.51,0.29 -0.44,0.25 -0.8,0.46 -1.67,-1.22 -4.12,-4.54 -5.53,-7.33 -1.14,-2.26 -1.29,-4.69 0.84,-5.93 2.21,-1.28 3.82,-0.53 6.03,0.24 1.39,0.63 1.97,0.49 0.01,-0.4 -2.3,-1.09 -5.13,-1.84 -7.55,-0.7 -2.25,1.07 -2.96,3.78 -1.81,6.19 1.14,2.49 3.69,6.2 6.35,8.09 1.07,0.46 1.84,0.68 2.71,0.68 0.51,1.58 0.93,2.52 1.35,3.36 0.41,0.67 -0.18,0.42 -0.47,0.46 -0.43,0.07 -0.64,0.2 -0.89,0.4 -1.3,1.06 -0.42,3.56 1.33,4.3 0.41,0.13 0.04,0.2 -0.24,0.28 -2.14,0.8 -1.22,3.67 0.7,3.97 0.41,0.15 0.39,0.2 -0.02,0.38 -1.87,1.14 -1.91,4.17 0.4,4.84 0.83,0.24 1.79,0.27 2.67,0.27 3.05,0.02 5.28,-0.68 8.35,-1.03 0.62,-0.07 0.65,0.01 0.33,0.29 -0.35,0.3 -0.47,0.46 -0.8,0.79 -0.22,0.2 -0.21,0.36 0.25,0.25 1.47,-0.54 3.88,-1.78 5.35,-2.47 z m -16.51,-18.5 c -0.26,-0.89 -0.18,-2.19 0.25,-2.68 1.24,0.58 0.82,1.86 -0.25,2.68 z"
   id="path69" />
		<path
   class="st39"
   d="m 901.12,16.27 c -5.86,5.14 -15.18,12.7 -20.4,18.5 -0.13,0.54 -0.34,1.76 -0.47,2.27 2.02,-2.69 17.53,-16.44 20.47,-18.68 z"
   id="path70" />
		<path
   class="st39"
   d="m 952.96,37.3 c 0.86,1.55 0.18,3.61 -1.1,5.12 -0.93,0.94 -3.53,0.59 -3.96,-1.44 -0.11,-0.6 0.06,-1.06 -0.28,-0.49 -1.83,2.78 -5.81,1.5 -5.21,-1.04 0.11,-0.34 -0.02,-0.49 -0.48,-0.3 -8.06,1.97 -18.43,0.64 -21.99,-4.98 -0.93,-1.47 -1.38,-3.22 -1.53,-4.84 -0.04,-0.99 -0.01,-0.96 -0.37,0.3 -0.98,3.41 -2.3,4.89 -4.15,5.98 -1.48,0.86 -3.54,1.45 -5.87,2.05 -1.61,0.42 -1.16,0.06 0.02,-0.52 1.55,-0.95 3.63,-2.01 5.49,-3.59 2.1,-1.79 3.92,-3.64 4.35,-6.62 0.28,-3.76 0.04,-11.25 0.02,-13.54 0.21,-0.63 0.73,-1.73 1.08,-2.4 0.51,4.68 0.4,10.23 0.46,15.17 0.03,2.34 0.63,4.97 1.7,6.42 4.46,6.05 15.79,6.65 22.58,4.29 0.49,-0.11 0.83,-0.12 0.44,0.33 -0.24,0.18 -0.73,0.89 -0.6,1.24 0.23,1.12 2.36,1.88 3.73,1.09 0.68,-0.39 1.17,-1.03 1.86,-1.9 0.28,-0.41 0.85,-0.66 0.47,0.01 -0.19,0.38 -0.55,0.76 -0.56,1.02 0.03,1.75 2.55,2.59 3.08,2.12 -0.13,-0.33 -0.33,-1.09 -0.43,-1.35 0.33,-0.58 0.87,-1.43 1.25,-2.13 z"
   id="path71" />
		<path
   class="st39"
   d="m 902.38,26.94 c 0.74,-5 3.49,-3.19 4.85,-1.21 0.35,0.51 0.39,0.71 0.44,1.32 -0.01,0.9 -0.13,1.41 -0.24,1.75 -0.11,0.24 -0.26,0.3 -0.59,0.36 -1.83,0.23 -3.3,0.38 -3.84,-0.16 -0.14,-0.21 -0.24,-0.2 -0.19,0.4 0.13,4.09 -2.34,6.14 -4.5,5.67 -0.63,-0.14 -1.21,-0.57 -1.65,-1.07 -0.21,-0.24 -0.42,-0.31 -0.74,0.59 -1.66,5.53 -6.45,9.76 -10.64,9.61 -2.26,-0.06 -2.96,-0.88 -4.65,-1.9 -1.6,-1.18 -2.36,2.18 -2.25,3.55 0.09,1.07 0.4,2.39 0.57,3.52 0.66,4.07 -1.07,4.74 -3.69,3.26 -1.71,-1.21 -2.85,-2.79 -3.85,-4.72 -0.62,-1.24 -0.71,-2.31 0.02,-0.79 0.97,1.67 1.52,2.79 3.19,3.94 1.11,0.84 3.51,1.06 3.34,-1.61 -0.04,-1.91 -1.08,-4.24 -0.72,-7.03 0.5,-3.42 2.2,-3.2 3.28,-2.33 1.48,1.08 3.14,2.14 5.03,1.89 4.39,-0.4 8.15,-5.45 9.56,-9.43 0.14,-0.41 0.27,-0.79 0.4,-1.2 0.2,-0.67 0.4,-0.91 0.68,-0.17 1.77,3.07 5.68,1.46 5.89,-2.21 0,-0.76 0.03,-1.24 0.1,-1.87 0.03,-0.37 0.14,0.04 0.2,-0.16 z m 1.03,0.13 c 0.91,0.19 1.54,0.08 2.52,-0.04 0.29,-0.13 -0.02,-0.27 -0.15,-0.4 -1.34,-1.1 -1.95,-1.05 -2.37,0.44 z"
   id="path72" />
		<path
   class="st39"
   d="m 950.05,45.39 -0.59,0.44 c 0.01,0.17 0.01,0.35 -0.04,0.5 -0.29,-0.01 -0.94,-0.44 -0.75,-0.85 0.09,-0.09 0.17,-0.18 0.22,-0.25 0.19,-0.19 0.14,-0.29 -0.18,-0.07 -0.18,0.16 -0.33,0.27 -0.49,0.36 -0.85,0.54 -1.33,-0.05 -1.55,-0.71 -0.05,-0.14 -0.16,-0.21 -0.27,-0.28 -1.29,-0.85 -4.95,1.37 -8.23,1.22 -1.01,-0.07 -0.88,0.16 -0.03,0.26 2.48,0.27 3.85,-0.15 6.08,-0.85 0.66,-0.12 1.68,-0.26 1.86,0.44 0.19,0.91 1.34,1.12 1.98,0.45 -0.11,0.92 0.92,1.19 1.54,0.49 0.38,-0.38 0.46,-0.75 0.45,-1.15 z"
   id="path73" />
		<path
   class="st39"
   d="m 988.71,78.98 -1.86,-0.15 c -0.08,0.18 -0.2,0.38 -0.34,0.52 -1.74,0.71 -3.41,2.64 -4.84,3.87 -1.98,-1.13 -5.81,-4.17 -7.82,-7.24 -3.23,-4.94 -0.51,-10.51 5.71,-9.82 1.19,0.08 1.55,-0.07 -0.09,-0.37 -6.67,-1.13 -11.85,4.63 -7.74,10.65 1.93,2.83 5.56,5.65 7.52,6.87 1.12,0.66 2.77,0.69 3.98,0.1 1.61,-0.63 2.11,-1.74 3.24,-2.52 0.18,-0.12 0.27,-0.21 0.2,0.08 -0.04,0.15 -0.07,0.34 -0.09,0.4 -0.23,0.76 0.3,0.36 0.58,-0.01 0.52,-0.66 1.14,-1.47 1.6,-2.12 0.18,-0.23 0.22,-0.22 -0.05,-0.26 z"
   id="path74" />
		<path
   class="st39"
   d="m 986.98,149.78 -2.08,-0.32 c -0.1,0.3 -0.15,0.35 -0.37,0.55 -0.94,0.51 -1.76,1.15 -2.5,1.92 -1.13,-1.06 -3.69,-2.15 -5.4,-1.7 -1.71,0.45 -0.78,2.7 0.22,4.05 0.42,0.56 1.75,0.89 2.4,0.97 1.97,0.27 2.71,-0.81 3.47,-1.63 0.64,0.44 1.75,1.2 2.59,1.74 0.86,0.55 1.87,0.69 2.85,0.79 -1.44,-0.59 -3.56,-2.2 -4.83,-3.16 0.31,-0.33 0.86,-0.89 1.23,-1.17 0.12,-0.09 0.2,-0.14 0.26,-0.15 0.09,-0.04 0.01,0.17 -0.07,0.68 -0.25,0.87 0.27,0.45 0.53,0 0.45,-0.68 1.24,-1.81 1.7,-2.57 z m -5.52,2.78 c -0.86,0.84 -1.33,1.53 -2.25,2.17 -0.52,-0.55 -1.89,-3.1 -1.1,-3.71 0.15,-0.11 0.37,-0.11 0.62,-0.06 1.13,0.32 2.28,1.1 2.73,1.6 z"
   id="path75" />
		<path
   class="st39"
   d="m 838.09,115.84 2.09,0.26 c 0.09,-0.3 0.14,-0.35 0.36,-0.56 0.92,-0.54 1.73,-1.19 2.45,-1.99 1.16,1.03 3.74,2.05 5.44,1.56 1.7,-0.5 0.71,-2.72 -0.32,-4.05 -0.43,-0.55 -1.77,-0.85 -2.42,-0.9 -1.98,-0.22 -2.69,0.88 -3.43,1.73 -0.65,-0.42 -1.78,-1.15 -2.63,-1.66 -0.87,-0.52 -1.89,-0.64 -2.87,-0.71 1.46,0.55 3.62,2.11 4.91,3.03 -0.31,0.34 -0.84,0.92 -1.2,1.2 -0.12,0.09 -0.2,0.15 -0.25,0.16 -0.09,0.04 -0.02,-0.17 0.05,-0.69 0.23,-0.88 -0.28,-0.44 -0.53,0.02 -0.44,0.68 -1.2,1.83 -1.65,2.6 z m 5.45,-2.92 c 0.84,-0.86 1.3,-1.56 2.19,-2.23 0.53,0.54 1.97,3.05 1.19,3.68 -0.14,0.12 -0.36,0.12 -0.62,0.07 -1.12,-0.29 -2.29,-1.03 -2.76,-1.52 z"
   id="path76" />
		<path
   class="st39"
   d="m 983.01,100.22 c 0.4,-0.17 0.9,-0.64 1.11,-1.18 0.41,-1.17 -0.39,-2.97 0.35,-3.98 1,-1.36 3.19,-0.77 4.25,0.38 1.02,1 0.86,2.18 -0.01,3.18 -1.48,1.6 -3.55,2.2 -5.46,2.02 -0.84,-0.08 -1.92,-0.33 -2.53,-0.75 -2.23,-1.71 -5.22,-6.54 -6.89,-9.3 -1.19,-2.83 -2.19,-6.33 -2.93,-9.26 -0.22,-0.87 0.01,-0.6 0.33,0.18 1.15,2.64 2.59,5.47 4.23,8.22 2.34,3.94 4.63,7.72 7.55,10.49 z m 3.29,-2.08 c 0.57,-0.55 1.28,-1.38 0.92,-2.02 -0.13,-0.23 -0.38,-0.49 -0.66,-0.56 -0.57,0.44 -0.18,1.97 -0.26,2.58 z"
   id="path77" />
		<path
   class="st39"
   d="m 993.03,195.96 -2.23,-0.67 c -0.16,0.25 -0.2,0.33 -0.31,0.34 -2.5,0.41 -3.8,1.55 -5.92,2.28 -4.01,-4.46 -8.32,-12.49 -10.5,-18.15 -0.87,-2.24 -0.83,-1.99 -0.39,0.01 0.49,2.04 1.03,4.72 1.72,7.14 1.41,3.16 4.87,8.7 7.47,11.06 0.71,0.53 2.53,0.94 3.42,0.77 1.69,-0.33 2.17,-1.04 3.75,-1.53 0.21,-0.08 0.33,-0.08 0.23,0.1 -0.01,0.03 -0.03,0.06 -0.06,0.09 -0.09,0.2 -0.24,0.4 -0.32,0.53 -0.27,0.44 0.15,0.3 0.57,0.04 1.01,-0.72 1.61,-1.24 2.57,-2.01 z"
   id="path78" />
		<path
   class="st39"
   d="m 993.02,169.73 -2.23,-0.67 c -0.16,0.25 -0.2,0.33 -0.31,0.34 -2.5,0.41 -3.8,1.55 -5.92,2.28 -4.01,-4.46 -8.32,-12.49 -10.5,-18.15 -0.87,-2.24 -0.83,-1.99 -0.39,0.01 0.49,2.04 1.03,4.72 1.72,7.14 1.41,3.16 4.87,8.7 7.47,11.06 0.71,0.53 2.53,0.94 3.42,0.77 1.69,-0.33 2.17,-1.04 3.75,-1.53 0.21,-0.08 0.33,-0.08 0.23,0.1 -0.01,0.03 -0.03,0.06 -0.06,0.09 -0.09,0.2 -0.24,0.4 -0.32,0.53 -0.27,0.44 0.15,0.3 0.57,0.04 1,-0.73 1.61,-1.25 2.57,-2.01 z"
   id="path79" />
		<path
   class="st39"
   d="m 838.63,163.19 2.23,0.68 c 0.16,-0.25 0.2,-0.33 0.31,-0.34 2.5,-0.4 3.81,-1.53 5.93,-2.26 2.49,2.79 4.56,6.25 6.69,10.37 1.29,2.49 2.4,4.97 3.22,7.11 0.87,2.24 0.82,1.99 0.39,-0.01 -0.48,-2.04 -1.02,-4.72 -1.69,-7.14 -1.4,-3.16 -4.31,-8 -6.9,-10.37 -0.71,-0.54 -2.53,-0.95 -3.41,-0.78 -1.69,0.33 -2.18,1.04 -3.75,1.52 -0.21,0.07 -0.33,0.07 -0.23,-0.1 0.01,-0.03 0.03,-0.06 0.06,-0.09 0.09,-0.2 0.24,-0.39 0.32,-0.53 0.27,-0.44 -0.14,-0.3 -0.57,-0.04 -1.03,0.7 -1.63,1.22 -2.6,1.98 z"
   id="path80" />
		<path
   class="st39"
   d="m 835.95,208.18 2.29,0.21 c 0.08,-0.29 0.15,-0.5 0.41,-0.68 3.66,-2.2 4.46,-5.83 6.67,-8.26 0.35,-0.37 0.72,-0.62 1.09,-0.65 1.56,2.55 4.48,7.78 5.53,10.68 0.4,1.4 0.09,2.8 -1.3,2.93 -1.51,0.1 -3.61,-0.73 -5,-1.41 -0.36,0.04 -0.83,-0.09 0.17,0.44 1.22,0.78 3.99,1.62 5.48,1.58 1.82,-0.04 3.72,-1.47 2.8,-3.64 -0.27,-1.22 -3.89,-7.8 -5.3,-9.92 -0.37,-0.5 -0.67,-0.67 -1.34,-0.88 -1.72,-0.55 -3.66,-0.55 -4.82,1.15 -1.18,1.47 -3,5.39 -4.32,6.23 -0.11,0.07 -0.09,-0.1 -0.06,-0.32 0.02,-0.19 0.06,-0.35 0.08,-0.53 0.12,-0.79 -0.29,-0.43 -0.46,-0.09 -0.59,1.04 -1.42,2.26 -1.92,3.16 z"
   id="path81" />
		<path
   class="st39"
   d="m 983.5,211.53 c 0.45,-0.35 0.62,-0.81 0.71,-1.26 0.17,-0.98 -0.26,-2.12 0.08,-3.22 0.42,-1.42 2.19,-1.62 3.55,-0.87 1.59,0.82 2.3,2.56 0.88,4.12 -1.83,2.06 -5.73,2.45 -7.59,0.85 -1.54,-1.17 -4.32,-4.23 -5.54,-6.8 -3.59,-6.94 3.47,-9.14 8.69,-6.49 1.16,0.51 0.9,0.68 0.15,0.38 -0.34,-0.13 -0.74,-0.29 -1.17,-0.44 -4.65,-1.65 -8.05,1.54 -5.79,6.17 1.36,2.83 4.57,6.47 6.03,7.56 z m 2.85,-1.85 c 0.69,-0.59 1.21,-1.22 1.05,-1.83 -0.08,-0.44 -0.53,-0.73 -0.8,-0.81 -0.45,0.32 -0.19,2.18 -0.23,2.63 z"
   id="path82" />
		<path
   class="st39"
   d="m 846.43,120.79 c -0.45,0.35 -0.62,0.82 -0.71,1.26 -0.16,0.98 0.27,2.12 -0.07,3.22 -0.42,1.42 -2.18,1.63 -3.54,0.88 -1.59,-0.82 -2.3,-2.55 -0.89,-4.12 1.82,-2.06 5.72,-2.47 7.58,-0.88 2.31,1.75 5.49,5.69 6.31,8.66 1.72,5.83 -4.7,7.02 -9.43,4.65 -1.17,-0.51 -0.9,-0.68 -0.15,-0.38 0.34,0.13 0.74,0.29 1.17,0.43 4.3,1.69 7.53,-0.92 6.19,-5.19 -0.79,-2.55 -4.4,-6.99 -6.46,-8.53 z m -2.85,1.87 c -0.69,0.59 -1.2,1.23 -1.05,1.83 0.08,0.44 0.53,0.73 0.8,0.81 0.45,-0.32 0.19,-2.18 0.23,-2.63 z"
   id="path83" />
		<path
   class="st39"
   d="m 868.05,50.13 c -0.57,0.01 -0.97,0.29 -1.29,0.61 -0.69,0.71 -0.98,1.9 -1.87,2.6 -1.15,0.91 -2.71,0 -3.41,-1.44 -0.84,-1.64 -0.45,-3.5 1.59,-3.93 2.66,-0.58 6.09,1.47 6.72,3.91 0.61,1.9 1.18,6.1 0.73,8.96 -0.95,7.89 -7.99,5.41 -10.8,0.06 -0.67,-1.13 -0.36,-1.11 0.1,-0.4 0.21,0.32 0.45,0.69 0.72,1.07 2.9,4.18 7.49,3.63 8.24,-1.56 0.45,-3.16 -0.14,-8.09 -0.73,-9.88 z m -3.39,-0.21 c -0.9,0.06 -1.68,0.27 -1.89,0.86 -0.18,0.41 0.02,0.92 0.2,1.15 0.55,0.01 1.38,-1.68 1.67,-2.02 z"
   id="path84" />
		<path
   class="st39"
   d="m 991.21,139.55 c -0.74,0.24 -0.96,0.11 -0.54,-0.24 0.17,-0.15 0.46,-0.43 0.63,-0.58 0.39,-0.3 0.25,-0.31 -0.07,-0.3 -5.16,0.53 -6.8,1.38 -12.02,1.49 -1.18,0.03 -2.29,-0.15 -3.55,-0.45 -0.45,-0.11 -0.88,-0.23 -1.19,-0.34 -0.53,-0.19 -0.77,-0.4 -0.39,-0.39 0.95,0.02 1.46,0.09 2.51,0.04 8.41,-0.51 8.51,-1.29 17.05,-1.86 0.2,-0.06 0.6,-0.14 0.84,-0.37 0.18,0.09 1.51,0.73 1.9,0.93 -0.68,0.34 -4.74,1.94 -5.17,2.07 z"
   id="path85" />
		<path
   class="st39"
   d="m 975.98,50.75 c -0.34,0.73 -0.58,0.8 -0.54,0.25 0.01,-0.23 0.01,-0.65 0.02,-0.88 0.05,-0.5 -0.05,-0.4 -0.25,-0.15 -3.17,4.27 -5.32,7.93 -8.82,11.96 -0.79,0.91 -1.67,1.63 -2.75,2.38 -0.39,0.27 -0.76,0.51 -1.06,0.66 -0.5,0.27 -0.81,0.31 -0.54,0.02 0.67,-0.71 1.07,-1.04 1.75,-1.87 5.4,-6.71 6.55,-9.16 12.01,-16.01 0.1,-0.19 0.31,-0.55 0.32,-0.9 0.18,-0.07 1.55,-0.64 1.95,-0.8 -0.22,0.76 -1.89,4.92 -2.09,5.34 z"
   id="path86" />
		<path
   class="st39"
   d="m 992.27,181.95 c -0.74,0.27 -0.95,0.14 -0.55,-0.22 0.17,-0.16 0.45,-0.45 0.61,-0.61 0.38,-0.31 0.24,-0.32 -0.08,-0.29 -5.14,0.71 -5.83,1.48 -11.05,1.78 -1.17,0.07 -2.29,-0.07 -3.56,-0.32 -0.46,-0.09 -0.88,-0.2 -1.2,-0.3 -0.53,-0.17 -0.78,-0.38 -0.4,-0.38 0.95,-0.01 1.47,0.04 2.51,-0.05 8.38,-0.81 7.54,-1.45 16.06,-2.32 0.2,-0.07 0.59,-0.16 0.83,-0.4 0.18,0.08 1.53,0.68 1.93,0.86 -0.68,0.36 -4.68,2.1 -5.1,2.25 z"
   id="path87" />
		<path
   class="st39"
   d="m 852.11,53.19 c 0.78,0.07 0.92,0.28 0.41,0.44 -0.21,0.07 -0.58,0.22 -0.8,0.29 -0.47,0.12 -0.34,0.19 -0.05,0.3 4.97,1.56 6.8,1.42 11.66,3.39 1.1,0.44 2.06,1.04 3.12,1.83 0.38,0.28 0.73,0.56 0.97,0.79 0.42,0.39 0.56,0.68 0.21,0.52 -0.87,-0.4 -1.32,-0.67 -2.31,-1.03 -7.96,-2.86 -8.34,-2.18 -16.44,-5.05 -0.21,-0.03 -0.6,-0.11 -0.92,0.01 -0.13,-0.15 -1.13,-1.28 -1.42,-1.61 0.79,-0.07 5.13,0.07 5.57,0.12 z"
   id="path88" />
		<path
   class="st39"
   d="m 838.61,137.14 c 0.75,-0.22 0.96,-0.08 0.54,0.26 -0.18,0.14 -0.47,0.42 -0.65,0.56 -0.39,0.29 -0.26,0.31 0.06,0.3 5.18,-0.36 6.84,-1.16 12.06,-1.1 1.18,0.01 2.28,0.22 3.54,0.57 0.45,0.12 0.87,0.26 1.18,0.38 0.52,0.21 0.76,0.43 0.38,0.41 -0.95,-0.05 -1.46,-0.14 -2.51,-0.12 -8.42,0.24 -8.54,1.01 -17.09,1.3 -0.21,0.05 -0.6,0.12 -0.85,0.35 -0.17,-0.1 -1.49,-0.78 -1.87,-0.99 0.68,-0.34 4.78,-1.8 5.21,-1.92 z"
   id="path89" />
		<path
   class="st39"
   d="m 963.52,60.68 c -3.61,-1.5 -4.31,-1.92 -8.02,-3.4 l -0.73,0.27 c 1.14,0.57 5.95,2.62 7.8,3.42 z"
   id="path90" />
		<path
   class="st39"
   d="m 970.7,69.58 c -3.61,-1.5 -4.31,-1.92 -8.02,-3.4 l -0.73,0.27 c 1.14,0.57 5.95,2.62 7.8,3.42 z"
   id="path91" />
		<path
   class="st39"
   d="m 978.25,213.58 c -2.38,-3.2 -2.78,-3.93 -5.26,-7.15 l -0.76,-0.16 c 0.7,1.09 3.85,5.39 5.06,7.05 z"
   id="path92" />
		<path
   class="st39"
   d="m 854.63,139.95 c 1.9,3.53 0.99,2.03 2.99,5.6 l 0.73,0.27 c -0.54,-1.19 -1.84,-3.64 -2.8,-5.47 z"
   id="path93" />
		<path
   class="st39"
   d="m 853.65,116.7 c 1.48,3.75 1.67,4.56 3.24,8.35 l 0.69,0.36 c -0.39,-1.25 -2.33,-6.26 -3.07,-8.2 z"
   id="path94" />
		<path
   class="st39"
   d="m 912.17,29.36 c -4.38,3.53 -5.37,3.97 -9.78,7.64 l -0.21,1.26 c 1.49,-1.04 7.37,-5.7 9.65,-7.48 z"
   id="path95" />
		<path
   class="st39"
   d="m 884.61,45.2 c -1.83,3.57 -2.31,4.24 -4.13,7.91 l 0.17,0.78 c 0.67,-1.11 3.16,-5.86 4.12,-7.69 z"
   id="path96" />
		<path
   class="st39"
   d="m 863.16,37.78 c -1.82,3.49 -4.29,8.95 -6.09,12.95 l 0.29,1.55 c 0.6,-1.35 5.09,-11.43 6.05,-13.12 z"
   id="path97" />
		<path
   class="st39"
   d="m 837.95,93.6 c 0.99,3.83 2.82,9.55 4.17,13.74 l 1.24,0.92 c -0.46,-1.41 -3.89,-11.93 -4.31,-13.84 z"
   id="path98" />
		<path
   class="st39"
   d="m 835.93,121.16 c 1.31,3.73 3.61,9.26 5.3,13.32 l 1.31,0.81 c -0.57,-1.37 -4.87,-11.53 -5.46,-13.4 z"
   id="path99" />
		<path
   class="st39"
   d="m 851.01,196.39 c 1.58,3.73 3.22,6.53 5.18,10.59 l 1.31,0.81 c -0.57,-1.37 -4.61,-8.8 -5.2,-10.67 z"
   id="path100" />
		<path
   class="st39"
   d="m 833.98,172.22 c 1.31,3.73 5.93,14.16 7.62,18.21 l 1.31,0.81 c -0.57,-1.37 -7.19,-16.43 -7.78,-18.3 z"
   id="path101" />
		<path
   class="st39"
   d="m 917.79,10.33 c -3.63,1.47 -4.97,2.05 -8.65,3.6 l -0.41,0.94 c 1.21,-0.39 6.67,-2.82 8.55,-3.55 z"
   id="path102" />
		<path
   class="st39"
   d="m 942.49,28.6 1.78,-1.55 c 0.72,0.1 2.96,1.04 3.42,1.45 0.24,0.22 0.28,0.52 0.02,0.73 -0.76,0.82 -2.15,1.86 -2.78,2.07 -0.95,0.02 -1.8,-0.29 -2.73,-0.53 -0.67,-0.17 -0.3,-0.23 0.43,-0.29 1.48,-0.13 2.4,-0.06 3.31,-0.5 -1.03,-0.47 -1.93,-1.01 -3.45,-1.38 z"
   id="path103" />
		<path
   class="st39"
   d="m 992.58,92.2 2.14,0.95 c 0.24,0.71 0.45,3.21 0.31,3.83 -0.08,0.32 -0.32,0.49 -0.62,0.35 -1.05,-0.33 -2.58,-1.15 -3.04,-1.64 -0.45,-0.86 -0.57,-1.8 -0.79,-2.77 -0.16,-0.69 0.06,-0.38 0.44,0.27 0.78,1.31 1.14,2.2 1.93,2.84 -0.05,-1.18 0,-2.24 -0.37,-3.83 z"
   id="path104" />
		<path
   class="st39"
   d="m 842.46,172.5 -2.04,-1.15 c -0.18,-0.73 -0.16,-3.24 0.04,-3.84 0.1,-0.31 0.36,-0.46 0.65,-0.29 1.01,0.43 2.46,1.39 2.88,1.92 0.37,0.91 0.4,1.85 0.53,2.83 0.09,0.71 -0.09,0.37 -0.42,-0.31 -0.66,-1.38 -0.94,-2.3 -1.67,-3.01 -0.05,1.18 -0.2,2.24 0.03,3.85 z"
   id="path105" />
		<path
   class="st39"
   d="m 835.79,156.1 -2.04,-1.15 c -0.18,-0.73 -0.16,-3.24 0.04,-3.84 0.1,-0.31 0.36,-0.46 0.65,-0.29 1.01,0.43 2.46,1.39 2.88,1.92 0.37,0.91 0.4,1.85 0.53,2.83 0.09,0.71 -0.09,0.37 -0.42,-0.31 -0.66,-1.38 -0.94,-2.3 -1.67,-3.01 -0.06,1.18 -0.2,2.24 0.03,3.85 z"
   id="path106" />
		<path
   class="st39"
   d="m 835.81,86.9 -1.82,-1.5 c -0.05,-0.75 0.38,-3.22 0.67,-3.78 0.16,-0.29 0.43,-0.39 0.69,-0.17 0.93,0.61 2.19,1.81 2.51,2.41 0.22,0.96 0.09,1.89 0.06,2.89 -0.03,0.71 -0.15,0.35 -0.36,-0.38 -0.42,-1.48 -0.54,-2.43 -1.14,-3.27 -0.25,1.16 -0.57,2.17 -0.61,3.8 z"
   id="path107" />
		<path
   class="st39"
   d="m 883.45,26.68 c -0.32,-0.05 -1.26,0.08 -1.45,0.19 -0.03,-0.08 -0.44,-0.72 -0.52,-1.09 -0.09,-0.4 0.11,-0.49 0.56,-0.53 1.06,-0.07 2.16,0.47 3.18,1.28 0.38,0.32 0.25,0.2 0,-0.22 -0.52,-0.86 -1.07,-1.78 -1.17,-2.81 -0.07,-0.96 0.59,-1.34 1.44,-0.89 l 0.27,0.95 c -0.24,-0.14 -0.66,-0.14 -0.87,-0.07 -0.78,0.37 0.26,2 0.51,2.44 0.35,0.61 0.7,1.2 0.8,1.92 0.02,0.15 -0.09,0.19 -0.26,0.07 -1.05,-0.83 -1.81,-1.41 -2.48,-1.52 -0.07,0.08 -0.03,0.07 -0.01,0.28 z"
   id="path108" />
		<path
   class="st39"
   d="m 835.91,201.91 c -0.22,0.26 -0.6,1.15 -0.62,1.38 -0.08,-0.01 -0.82,0.01 -1.17,-0.12 -0.37,-0.13 -0.34,-0.35 -0.14,-0.77 0.5,-0.97 1.53,-1.65 2.73,-2.12 0.46,-0.16 0.29,-0.11 -0.18,-0.11 -0.98,0 -2.02,0 -2.92,-0.46 -0.82,-0.44 -0.78,-1.23 0.04,-1.74 l 0.91,0.27 c -0.24,0.14 -0.47,0.51 -0.52,0.73 -0.11,0.89 1.76,0.83 2.26,0.85 0.69,0.02 1.36,0.02 1.99,0.31 0.13,0.06 0.11,0.18 -0.08,0.26 -1.23,0.48 -2.11,0.85 -2.56,1.38 0.07,0.08 0.08,0.05 0.26,0.14 z"
   id="path109" />
		<path
   class="st39"
   d="m 837.69,170.94 c -0.22,0.26 -0.6,1.15 -0.62,1.38 -0.08,-0.01 -0.82,0.01 -1.17,-0.12 -0.37,-0.13 -0.34,-0.35 -0.14,-0.77 0.5,-0.97 1.53,-1.65 2.73,-2.12 0.46,-0.16 0.29,-0.11 -0.18,-0.11 -0.98,0 -2.02,0 -2.92,-0.46 -0.82,-0.44 -0.78,-1.23 0.04,-1.74 l 0.91,0.27 c -0.24,0.14 -0.47,0.51 -0.52,0.73 -0.11,0.89 1.77,0.83 2.26,0.85 0.69,0.02 1.36,0.02 1.99,0.31 0.13,0.06 0.11,0.18 -0.08,0.26 -1.23,0.48 -2.11,0.85 -2.56,1.38 0.07,0.08 0.08,0.05 0.26,0.14 z"
   id="path110" />
		<path
   class="st39"
   d="m 849.15,61.18 c -0.31,0.1 -1.09,0.65 -1.22,0.84 -0.06,-0.06 -0.7,-0.44 -0.93,-0.74 -0.25,-0.32 -0.11,-0.49 0.27,-0.73 0.92,-0.55 2.14,-0.57 3.4,-0.32 0.47,0.11 0.31,0.06 -0.1,-0.2 -0.83,-0.54 -1.72,-1.1 -2.25,-1.99 -0.47,-0.83 -0.04,-1.47 0.92,-1.46 l 0.64,0.73 c -0.27,-0.01 -0.66,0.18 -0.81,0.34 -0.54,0.7 1.08,1.67 1.49,1.96 0.57,0.39 1.14,0.76 1.54,1.35 0.08,0.12 0,0.21 -0.2,0.18 -1.29,-0.26 -2.23,-0.43 -2.87,-0.22 -0.02,0.1 0.01,0.08 0.12,0.26 z"
   id="path111" />
		<path
   class="st39"
   d="m 836.61,104.98 c -0.2,0.27 -0.52,1.19 -0.52,1.42 -0.08,-0.01 -0.82,0.07 -1.17,-0.03 -0.38,-0.11 -0.37,-0.33 -0.19,-0.76 0.44,-1.01 1.42,-1.76 2.58,-2.32 0.44,-0.2 0.28,-0.13 -0.19,-0.1 -0.98,0.07 -2.01,0.15 -2.94,-0.25 -0.85,-0.38 -0.86,-1.17 -0.08,-1.74 l 0.93,0.2 c -0.23,0.15 -0.43,0.54 -0.47,0.77 -0.05,0.89 1.82,0.7 2.31,0.68 0.69,-0.03 1.35,-0.08 2.01,0.17 0.13,0.05 0.12,0.17 -0.06,0.27 -1.2,0.57 -2.05,1 -2.46,1.56 0.05,0.08 0.06,0.05 0.25,0.13 z"
   id="path112" />
		<path
   class="st39"
   d="m 853.84,159.04 c -0.2,0.27 -0.52,1.19 -0.52,1.42 -0.08,-0.01 -0.82,0.07 -1.17,-0.03 -0.38,-0.11 -0.37,-0.33 -0.19,-0.76 0.44,-1.01 1.42,-1.76 2.58,-2.32 0.44,-0.2 0.28,-0.13 -0.19,-0.1 -0.98,0.07 -2.01,0.15 -2.94,-0.25 -0.85,-0.38 -0.86,-1.17 -0.08,-1.74 l 0.93,0.2 c -0.23,0.15 -0.43,0.54 -0.47,0.77 -0.05,0.89 1.82,0.7 2.31,0.68 0.69,-0.03 1.35,-0.08 2.01,0.17 0.13,0.05 0.12,0.17 -0.06,0.27 -1.2,0.57 -2.05,1 -2.46,1.56 0.06,0.08 0.07,0.05 0.25,0.13 z"
   id="path113" />
		<path
   class="st39"
   d="m 937.86,21.7 c -0.14,-0.27 -0.76,-0.89 -0.94,-0.98 0.04,-0.07 0.25,-0.73 0.46,-1 0.23,-0.29 0.4,-0.2 0.68,0.12 0.64,0.75 0.88,1.88 0.89,3.09 -0.01,0.46 0,0.3 0.15,-0.13 0.31,-0.87 0.63,-1.79 1.29,-2.45 0.62,-0.59 1.26,-0.31 1.42,0.58 l -0.51,0.73 c -0.04,-0.25 -0.27,-0.58 -0.44,-0.69 -0.7,-0.38 -1.24,1.31 -1.4,1.75 -0.23,0.6 -0.44,1.2 -0.88,1.67 -0.09,0.1 -0.18,0.04 -0.19,-0.16 -0.01,-1.25 -0.04,-2.14 -0.34,-2.71 -0.08,0.03 -0.06,0.06 -0.19,0.18 z"
   id="path114" />
		<path
   class="st39"
   d="m 945.55,24.95 c -0.14,-0.27 -0.76,-0.89 -0.94,-0.98 0.04,-0.07 0.25,-0.73 0.46,-1 0.23,-0.29 0.4,-0.2 0.68,0.12 0.64,0.75 0.88,1.88 0.89,3.09 -0.01,0.46 0,0.3 0.15,-0.13 0.31,-0.87 0.63,-1.79 1.29,-2.45 0.62,-0.59 1.26,-0.31 1.42,0.58 l -0.5,0.73 c -0.04,-0.25 -0.27,-0.58 -0.44,-0.69 -0.7,-0.38 -1.24,1.31 -1.4,1.75 -0.23,0.6 -0.44,1.2 -0.88,1.67 -0.09,0.1 -0.18,0.04 -0.19,-0.16 -0.01,-1.25 -0.04,-2.14 -0.34,-2.71 -0.09,0.02 -0.07,0.05 -0.2,0.18 z"
   id="path115" />
		<path
   class="st39"
   d="m 925.14,15.75 c -0.14,-0.27 -0.76,-0.89 -0.94,-0.98 0.04,-0.07 0.25,-0.73 0.46,-1 0.23,-0.29 0.4,-0.2 0.68,0.12 0.64,0.75 0.88,1.88 0.89,3.09 -0.01,0.46 0,0.3 0.15,-0.13 0.31,-0.87 0.63,-1.79 1.29,-2.45 0.62,-0.59 1.26,-0.31 1.42,0.58 l -0.51,0.73 c -0.04,-0.25 -0.27,-0.58 -0.44,-0.69 -0.7,-0.38 -1.24,1.31 -1.4,1.75 -0.23,0.6 -0.44,1.2 -0.88,1.67 -0.09,0.1 -0.18,0.04 -0.19,-0.16 -0.01,-1.25 -0.04,-2.14 -0.34,-2.71 -0.08,0.03 -0.05,0.05 -0.19,0.18 z"
   id="path116" />
		<path
   class="st39"
   d="m 986.7,65.39 c 0.11,-0.29 0.2,-1.18 0.15,-1.38 0.07,-0.01 0.7,-0.25 1.04,-0.25 0.36,0 0.4,0.2 0.34,0.62 -0.16,0.99 -0.86,1.89 -1.77,2.66 -0.35,0.28 -0.22,0.19 0.19,0.04 0.85,-0.29 1.74,-0.61 2.65,-0.48 0.83,0.14 1.02,0.83 0.45,1.52 l -0.86,0.04 c 0.17,-0.19 0.26,-0.58 0.24,-0.79 -0.15,-0.8 -1.76,-0.19 -2.19,-0.05 -0.6,0.19 -1.18,0.39 -1.81,0.33 -0.13,-0.01 -0.14,-0.12 0,-0.25 0.93,-0.79 1.58,-1.37 1.82,-1.97 -0.06,-0.04 -0.07,-0.01 -0.25,-0.04 z"
   id="path117" />
		<path
   class="st39"
   d="m 988.44,71.85 c 0.13,-0.28 0.27,-1.16 0.24,-1.36 0.07,-0.01 0.72,-0.21 1.05,-0.18 0.36,0.03 0.38,0.23 0.3,0.65 -0.23,0.98 -0.98,1.83 -1.93,2.53 -0.37,0.25 -0.23,0.17 0.19,0.06 0.86,-0.23 1.78,-0.49 2.67,-0.3 0.82,0.19 0.96,0.9 0.35,1.55 l -0.87,-0.01 c 0.18,-0.18 0.3,-0.56 0.29,-0.77 -0.1,-0.81 -1.74,-0.31 -2.18,-0.2 -0.61,0.15 -1.2,0.31 -1.83,0.2 -0.13,-0.02 -0.14,-0.13 0.01,-0.25 0.98,-0.72 1.67,-1.26 1.95,-1.83 -0.06,-0.08 -0.06,-0.05 -0.24,-0.09 z"
   id="path118" />
		<path
   class="st39"
   d="m 991.83,85.76 c 0.24,-0.26 0.7,-1.2 0.73,-1.43 0.08,0.02 0.87,0.04 1.24,0.19 0.39,0.16 0.35,0.4 0.11,0.83 -0.59,1.01 -1.72,1.67 -3.03,2.11 -0.5,0.15 -0.32,0.1 0.19,0.13 1.04,0.06 2.15,0.12 3.09,0.66 0.85,0.52 0.76,1.36 -0.14,1.86 l -0.96,-0.34 c 0.26,-0.13 0.53,-0.52 0.59,-0.75 0.17,-0.94 -1.84,-0.99 -2.36,-1.04 -0.73,-0.06 -1.45,-0.1 -2.11,-0.45 -0.13,-0.07 -0.11,-0.2 0.1,-0.27 1.34,-0.44 2.29,-0.79 2.8,-1.33 -0.05,-0.09 -0.06,-0.06 -0.25,-0.17 z"
   id="path119" />
		<path
   class="st39"
   d="m 975.87,132.55 c 0.21,-0.22 0.6,-1.02 0.63,-1.22 0.07,0.02 0.75,0.03 1.06,0.16 0.33,0.14 0.3,0.34 0.09,0.71 -0.5,0.86 -1.47,1.43 -2.58,1.8 -0.42,0.13 -0.27,0.09 0.16,0.11 0.89,0.05 1.84,0.1 2.63,0.56 0.73,0.44 0.65,1.16 -0.12,1.59 l -0.82,-0.29 c 0.22,-0.11 0.45,-0.44 0.51,-0.64 0.14,-0.8 -1.57,-0.85 -2.02,-0.88 -0.62,-0.05 -1.23,-0.08 -1.8,-0.38 -0.11,-0.06 -0.09,-0.17 0.09,-0.23 1.14,-0.38 1.96,-0.67 2.39,-1.13 -0.05,-0.1 -0.06,-0.07 -0.22,-0.16 z"
   id="path120" />
		<path
   class="st39"
   d="m 975.87,132.55 c 0.21,-0.22 0.6,-1.02 0.63,-1.22 0.07,0.02 0.75,0.03 1.06,0.16 0.33,0.14 0.3,0.34 0.09,0.71 -0.5,0.86 -1.47,1.43 -2.58,1.8 -0.42,0.13 -0.27,0.09 0.16,0.11 0.89,0.05 1.84,0.1 2.63,0.56 0.73,0.44 0.65,1.16 -0.12,1.59 l -0.82,-0.29 c 0.22,-0.11 0.45,-0.44 0.51,-0.64 0.14,-0.8 -1.57,-0.85 -2.02,-0.88 -0.62,-0.05 -1.23,-0.08 -1.8,-0.38 -0.11,-0.06 -0.09,-0.17 0.09,-0.23 1.14,-0.38 1.96,-0.67 2.39,-1.13 -0.05,-0.1 -0.06,-0.07 -0.22,-0.16 z"
   id="path121" />
		<path
   class="st39"
   d="m 974.57,116.3 c 0.21,-0.22 0.6,-1.02 0.63,-1.22 0.07,0.02 0.75,0.03 1.06,0.16 0.33,0.14 0.3,0.34 0.09,0.71 -0.5,0.86 -1.47,1.43 -2.58,1.8 -0.42,0.13 -0.27,0.09 0.16,0.11 0.89,0.05 1.84,0.1 2.63,0.56 0.73,0.44 0.65,1.16 -0.12,1.59 l -0.82,-0.29 c 0.22,-0.11 0.45,-0.44 0.51,-0.64 0.14,-0.8 -1.57,-0.85 -2.02,-0.88 -0.62,-0.05 -1.23,-0.08 -1.8,-0.38 -0.11,-0.06 -0.09,-0.17 0.09,-0.23 1.14,-0.38 1.96,-0.67 2.39,-1.13 -0.05,-0.09 -0.06,-0.06 -0.22,-0.16 z"
   id="path122" />
		<path
   class="st39"
   d="m 993.63,202.96 c 0.21,-0.22 0.6,-1.02 0.63,-1.22 0.07,0.02 0.75,0.03 1.06,0.16 0.33,0.14 0.3,0.34 0.09,0.71 -0.5,0.86 -1.47,1.43 -2.58,1.8 -0.42,0.13 -0.27,0.09 0.16,0.11 0.89,0.05 1.84,0.1 2.63,0.56 0.73,0.44 0.65,1.16 -0.12,1.59 l -0.82,-0.29 c 0.22,-0.11 0.45,-0.44 0.51,-0.64 0.14,-0.8 -1.57,-0.85 -2.02,-0.88 -0.62,-0.05 -1.23,-0.08 -1.8,-0.38 -0.11,-0.06 -0.09,-0.17 0.09,-0.23 1.14,-0.38 1.96,-0.67 2.39,-1.13 -0.05,-0.1 -0.07,-0.07 -0.22,-0.16 z"
   id="path123" />
		<path
   class="st39"
   d="m 984.86,162.11 c 0.21,-0.22 0.6,-1.02 0.63,-1.22 0.07,0.02 0.75,0.03 1.06,0.16 0.33,0.14 0.3,0.34 0.09,0.71 -0.5,0.86 -1.47,1.43 -2.58,1.8 -0.42,0.13 -0.27,0.09 0.16,0.11 0.89,0.05 1.84,0.1 2.63,0.56 0.73,0.44 0.65,1.16 -0.12,1.59 l -0.82,-0.29 c 0.22,-0.11 0.45,-0.44 0.51,-0.64 0.14,-0.8 -1.57,-0.85 -2.02,-0.88 -0.62,-0.05 -1.23,-0.08 -1.8,-0.38 -0.11,-0.06 -0.09,-0.17 0.09,-0.23 1.14,-0.38 1.96,-0.67 2.39,-1.13 -0.05,-0.1 -0.06,-0.07 -0.22,-0.16 z"
   id="path124" />
		<path
   class="st39"
   d="m 977.24,173.35 c 0.21,-0.22 0.6,-1.02 0.63,-1.22 0.07,0.02 0.75,0.03 1.06,0.16 0.33,0.14 0.3,0.34 0.09,0.71 -0.5,0.86 -1.47,1.43 -2.58,1.8 -0.42,0.13 -0.27,0.09 0.16,0.11 0.89,0.05 1.84,0.1 2.63,0.56 0.73,0.44 0.65,1.16 -0.12,1.59 l -0.82,-0.29 c 0.22,-0.11 0.45,-0.44 0.51,-0.64 0.14,-0.8 -1.57,-0.85 -2.02,-0.88 -0.62,-0.05 -1.23,-0.08 -1.8,-0.38 -0.11,-0.06 -0.09,-0.17 0.09,-0.23 1.14,-0.38 1.96,-0.67 2.39,-1.13 -0.04,-0.09 -0.06,-0.06 -0.22,-0.16 z"
   id="path125" />
		<path
   class="st39"
   d="m 993.1,173.68 c 0.21,-0.22 0.6,-1.02 0.63,-1.22 0.07,0.02 0.75,0.03 1.06,0.16 0.33,0.14 0.3,0.34 0.09,0.71 -0.5,0.86 -1.47,1.43 -2.58,1.8 -0.42,0.13 -0.27,0.09 0.16,0.11 0.89,0.05 1.84,0.1 2.63,0.56 0.73,0.44 0.65,1.16 -0.12,1.59 l -0.82,-0.29 c 0.22,-0.11 0.45,-0.44 0.51,-0.64 0.14,-0.8 -1.57,-0.85 -2.02,-0.88 -0.62,-0.05 -1.23,-0.08 -1.8,-0.38 -0.11,-0.06 -0.09,-0.17 0.09,-0.23 1.14,-0.38 1.96,-0.67 2.39,-1.13 -0.05,-0.09 -0.06,-0.06 -0.22,-0.16 z"
   id="path126" />
		<path
   class="st39"
   d="m 929.28,30.57 c -0.17,-0.32 -0.9,-1.05 -1.11,-1.16 0.04,-0.08 0.29,-0.86 0.54,-1.18 0.27,-0.34 0.47,-0.23 0.8,0.14 0.76,0.89 1.04,2.22 1.06,3.65 -0.01,0.54 0,0.35 0.18,-0.15 0.36,-1.03 0.74,-2.12 1.52,-2.89 0.73,-0.7 1.48,-0.36 1.68,0.69 l -0.6,0.86 c -0.04,-0.3 -0.32,-0.68 -0.52,-0.82 -0.82,-0.44 -1.46,1.55 -1.66,2.06 -0.27,0.71 -0.52,1.42 -1.04,1.98 -0.11,0.11 -0.22,0.05 -0.22,-0.18 -0.01,-1.47 -0.05,-2.53 -0.4,-3.2 -0.1,0.02 -0.08,0.04 -0.23,0.2 z"
   id="path127" />
		<path
   class="st39"
   d="m 886.48,37.31 c -0.32,-0.05 -1.26,0.08 -1.45,0.19 -0.03,-0.08 -0.44,-0.72 -0.52,-1.09 -0.09,-0.4 0.11,-0.49 0.56,-0.53 1.06,-0.07 2.16,0.47 3.18,1.28 0.38,0.32 0.25,0.2 0,-0.22 -0.52,-0.86 -1.07,-1.78 -1.17,-2.82 -0.07,-0.96 0.59,-1.34 1.44,-0.89 l 0.27,0.95 c -0.24,-0.14 -0.66,-0.14 -0.87,-0.07 -0.78,0.37 0.26,2 0.51,2.44 0.35,0.61 0.7,1.2 0.8,1.92 0.02,0.15 -0.09,0.19 -0.26,0.07 -1.05,-0.83 -1.81,-1.41 -2.48,-1.52 -0.06,0.09 -0.02,0.08 -0.01,0.29 z"
   id="path128" />
		<path
   class="st39"
   d="m 937.46,25.42 c 0.33,-0.58 0.84,-1.18 1.36,-0.78 0.34,0.25 0.89,1.19 0.89,1.73 -0.02,0.25 -0.16,0.4 -0.4,0.75 -0.48,-0.2 -1.42,-0.18 -2.15,0.1 -0.38,0.18 -0.37,0.11 -0.37,0.74 0.18,2.61 0.43,4.28 -0.51,6.98 -0.15,0.43 -0.29,0.51 -0.17,-0.04 0.53,-2.34 0.33,-3.93 0.25,-6.45 -0.03,-0.76 0.25,-1.47 0.88,-1.89 0.43,-0.29 0.99,-0.38 1.65,-0.36 -0.3,-0.88 -0.94,-1.01 -1.39,-0.55 -0.27,0.28 -0.31,0.2 -0.04,-0.23 z"
   id="path129" />
		<path
   class="st39"
   d="m 924.74,19.4 c 0.33,-0.58 0.84,-1.18 1.36,-0.78 0.34,0.25 0.89,1.19 0.89,1.73 -0.02,0.25 -0.16,0.4 -0.4,0.75 -0.48,-0.2 -1.42,-0.18 -2.15,0.1 -0.38,0.18 -0.37,0.11 -0.37,0.74 0.18,2.61 0.43,4.28 -0.51,6.98 -0.15,0.43 -0.29,0.51 -0.17,-0.04 0.53,-2.34 0.33,-3.93 0.25,-6.45 -0.03,-0.76 0.25,-1.47 0.88,-1.89 0.43,-0.29 0.99,-0.38 1.65,-0.36 -0.3,-0.88 -0.94,-1.01 -1.39,-0.55 -0.27,0.28 -0.31,0.2 -0.04,-0.23 z"
   id="path130" />
		<path
   class="st39"
   d="m 983.66,67.38 c 0.65,-0.09 1.41,-0.06 1.44,0.62 0.02,0.43 -0.34,1.46 -0.74,1.8 -0.2,0.14 -0.4,0.12 -0.81,0.14 -0.15,-0.52 -0.75,-1.26 -1.42,-1.69 -0.37,-0.2 -0.32,-0.23 -0.79,0.16 -1.85,1.77 -2.95,3.02 -5.57,3.94 -0.41,0.15 -0.57,0.08 -0.08,-0.16 2.09,-1.03 3.16,-2.18 5,-3.82 0.56,-0.49 1.26,-0.71 1.97,-0.47 0.48,0.17 0.9,0.57 1.31,1.12 0.47,-0.8 0.17,-1.4 -0.46,-1.47 -0.38,-0.04 -0.35,-0.12 0.15,-0.17 z"
   id="path131" />
		<polygon
   class="st39"
   points="899.17,38.29 896.32,38.23 896.4,40.67 899.2,40.72 "
   id="polygon131" />
		<polygon
   class="st39"
   points="875.41,34.9 872.57,34.84 872.65,37.28 875.44,37.33 "
   id="polygon132" />
		<polygon
   class="st39"
   points="834.84,110.02 833.35,112.55 835.41,113.71 836.87,111.23 "
   id="polygon133" />
		<polygon
   class="st39"
   points="896.33,40.77 893.49,40.71 893.57,43.15 896.36,43.2 "
   id="polygon134" />
		<polygon
   class="st39"
   points="872.58,37.38 869.74,37.32 869.81,39.76 872.61,39.81 "
   id="polygon135" />
		<polygon
   class="st39"
   points="835.46,113.82 833.97,116.34 836.03,117.51 837.49,115.03 "
   id="polygon136" />
		<polygon
   class="st39"
   points="844.24,176.86 842.85,179.45 844.96,180.52 846.32,177.98 "
   id="polygon137" />
		<polygon
   class="st39"
   points="844.97,180.59 843.58,183.18 845.69,184.25 847.05,181.71 "
   id="polygon138" />
		<polygon
   class="st39"
   points="841.72,179.84 840.34,182.43 842.44,183.5 843.8,180.96 "
   id="polygon139" />
		<polygon
   class="st39"
   points="986.84,126.35 988.14,124.12 986.32,123.1 985.04,125.29 "
   id="polygon140" />
		<polygon
   class="st39"
   points="986.26,123.14 987.56,120.91 985.74,119.89 984.46,122.08 "
   id="polygon141" />
		<polygon
   class="st39"
   points="989.06,123.82 990.36,121.59 988.54,120.57 987.26,122.76 "
   id="polygon142" />
		<polygon
   class="st39"
   points="990.53,156.38 992,153.86 989.94,152.7 988.49,155.18 "
   id="polygon143" />
		<polygon
   class="st39"
   points="989.94,152.57 991.42,150.04 989.36,148.88 987.9,151.37 "
   id="polygon144" />
		<polygon
   class="st39"
   points="994.46,194.84 995.94,192.31 993.87,191.16 992.42,193.64 "
   id="polygon145" />
		<polygon
   class="st39"
   points="981.91,75.23 982.56,72.34 980.25,71.91 979.61,74.74 "
   id="polygon146" />
		<path
   class="st39"
   d="m 995.12,121.22 c -0.25,-0.14 -0.61,-0.2 -0.92,-0.3 -0.6,0.16 -1.12,0.36 -1.68,0.59 -0.32,-0.16 -0.33,-0.9 0.25,-1.29 0.48,-0.32 1.48,-0.11 2.25,-0.52 l -0.79,-0.31 c -0.48,0.18 -0.91,0.25 -1.43,0.15 -1.01,-0.19 -0.95,-1.56 0.14,-1.57 0.55,0 1.23,0.28 1.77,-0.1 l -0.82,-0.31 c -0.1,0.19 -1.02,0.08 -1.58,0.06 -1.32,-0.05 -1.36,1.52 -0.31,1.9 0.23,0.09 0.51,0.17 0.78,0.2 -0.44,0.06 -0.7,0.12 -1.03,0.45 -0.64,0.65 -0.13,1.4 0.88,1.62 0.77,0.16 1.59,-0.46 2.49,-0.57 z"
   id="path146" />
		<path
   class="st39"
   d="m 895.28,25.27 c 0,0.31 0.12,0.68 0.18,1.03 0.43,0.49 0.86,0.9 1.33,1.33 0.01,0.38 -0.64,0.75 -1.26,0.38 -0.51,-0.31 -0.8,-1.37 -1.54,-1.91 l 0.1,0.9 c 0.39,0.37 0.66,0.76 0.82,1.3 0.32,1.06 -0.93,1.67 -1.46,0.62 -0.27,-0.53 -0.34,-1.31 -0.94,-1.65 l 0.12,0.94 c 0.22,0.01 0.56,0.94 0.81,1.49 0.59,1.29 2,0.57 1.83,-0.62 -0.03,-0.27 -0.09,-0.57 -0.2,-0.85 0.26,0.39 0.44,0.62 0.89,0.77 0.88,0.3 1.3,-0.55 1.01,-1.62 -0.22,-0.81 -1.16,-1.3 -1.69,-2.11 z"
   id="path147" />
		<path
   class="st39"
   d="m 836.81,76.88 c 0.25,0.16 0.62,0.25 0.93,0.38 0.63,-0.12 1.19,-0.29 1.79,-0.48 0.32,0.19 0.28,0.96 -0.35,1.32 -0.52,0.29 -1.54,0 -2.38,0.36 l 0.79,0.38 c 0.51,-0.16 0.97,-0.19 1.49,-0.05 1.04,0.27 0.88,1.7 -0.26,1.62 -0.58,-0.04 -1.25,-0.39 -1.85,-0.03 l 0.83,0.39 c 0.12,-0.19 1.06,0 1.64,0.06 1.37,0.15 1.52,-1.47 0.45,-1.95 -0.23,-0.11 -0.51,-0.22 -0.8,-0.27 0.46,-0.03 0.74,-0.07 1.1,-0.38 0.71,-0.62 0.23,-1.44 -0.8,-1.75 -0.75,-0.22 -1.64,0.36 -2.58,0.4 z"
   id="path148" />
		<path
   class="st39"
   d="m 993.82,111.36 c 0.4,-0.47 0.92,-1.25 1.59,-1.26 0.55,0 1.08,0.41 1.39,0.9 0.75,1.18 0.19,1.88 -0.97,1.75 -0.49,-0.08 -1.01,-0.26 -1.45,-0.54 -0.26,0.31 -0.61,0.65 -0.89,0.81 -0.11,0.1 -0.63,-0.22 -0.84,-0.3 0.4,-0.38 0.68,-0.63 1,-1.06 -2.85,-1.87 -5.13,-6.8 -6.4,-9.26 -0.77,-1.5 0.12,-0.29 0.31,0.01 1.72,2.79 3.73,6.68 6.26,8.95 z m 0.81,0.63 c 0.31,0.05 0.7,0.14 1.01,0.1 0.63,-0.09 0.92,-0.64 0.4,-1.29 -0.36,-0.23 -1.15,0.91 -1.41,1.19 z"
   id="path149" />
		<path
   class="st39"
   d="m 993.17,150.19 c 0.4,-0.47 0.92,-1.25 1.58,-1.26 0.55,0 1.08,0.41 1.39,0.9 0.75,1.18 0.19,1.88 -0.97,1.75 -0.49,-0.08 -1.01,-0.26 -1.45,-0.54 -0.26,0.31 -0.61,0.65 -0.89,0.81 -0.12,0.11 -0.63,-0.22 -0.84,-0.3 0.4,-0.38 0.68,-0.63 1,-1.06 -2.85,-1.87 -5.13,-6.8 -6.4,-9.26 -0.77,-1.5 0.12,-0.29 0.31,0.01 1.74,2.78 3.75,6.67 6.27,8.95 z m 0.81,0.62 c 0.31,0.05 0.7,0.14 1.01,0.1 0.63,-0.09 0.92,-0.64 0.4,-1.29 -0.36,-0.22 -1.15,0.92 -1.41,1.19 z"
   id="path150" />
		<path
   class="st39"
   d="m 932.39,23.59 c -0.6,-0.03 -1.01,-0.91 -0.88,-1.55 0.23,-1.13 1.09,-2.62 1.52,-3.65 0.25,-0.6 0.4,-1.23 -0.25,-0.06 -0.43,0.81 -1.38,2.27 -1.85,3.54 -0.23,0.61 -0.32,1.22 -0.27,1.76 0.09,0.92 0.86,1.83 1.7,0.93 0.43,-0.47 0.71,-1.2 0.86,-1.73 0.14,-0.54 0.12,-0.48 -0.22,-0.17 -0.2,0.31 -0.36,0.68 -0.61,0.93 z"
   id="path151" />
		<path
   class="st39"
   d="m 951.24,32.87 c -0.49,-0.14 -0.67,-0.93 -0.46,-1.43 0.38,-0.88 1.33,-1.95 1.85,-2.71 0.31,-0.44 0.53,-0.93 -0.19,-0.09 -0.49,0.58 -1.5,1.61 -2.11,2.56 -0.29,0.46 -0.47,0.94 -0.52,1.39 -0.08,0.76 0.4,1.65 1.23,1.06 0.43,-0.31 0.78,-0.85 0.99,-1.26 0.21,-0.41 0.18,-0.38 -0.15,-0.18 -0.21,0.23 -0.4,0.5 -0.64,0.66 z"
   id="path152" />
		<path
   class="st39"
   d="m 953.28,48.69 c -0.49,-0.14 -0.67,-0.93 -0.46,-1.43 0.38,-0.88 1.33,-1.95 1.85,-2.71 0.31,-0.44 0.53,-0.93 -0.19,-0.09 -0.49,0.58 -1.5,1.61 -2.11,2.56 -0.29,0.46 -0.47,0.94 -0.52,1.39 -0.08,0.76 0.4,1.65 1.23,1.06 0.43,-0.31 0.78,-0.85 0.99,-1.26 0.21,-0.41 0.18,-0.38 -0.15,-0.18 -0.2,0.23 -0.39,0.5 -0.64,0.66 z"
   id="path153" />
		<path
   class="st39"
   d="m 915.09,19.94 c -0.5,0.06 -0.96,-0.6 -0.95,-1.14 0.03,-0.97 0.52,-2.33 0.73,-3.23 0.12,-0.53 0.15,-1.07 -0.21,-0.01 -0.24,0.73 -0.81,2.08 -1.02,3.2 -0.1,0.54 -0.09,1.05 0.03,1.49 0.2,0.74 0.97,1.37 1.53,0.5 0.29,-0.45 0.41,-1.1 0.46,-1.56 0.04,-0.47 0.03,-0.42 -0.2,-0.1 -0.12,0.28 -0.2,0.61 -0.37,0.85 z"
   id="path154" />
		<path
   class="st39"
   d="m 965.9,51.57 c -0.37,-0.35 -0.2,-1.15 0.21,-1.49 0.72,-0.61 2.04,-1.11 2.83,-1.54 0.47,-0.25 0.88,-0.58 -0.13,-0.18 -0.69,0.29 -2.04,0.73 -2.99,1.29 -0.46,0.27 -0.83,0.62 -1.07,0.99 -0.41,0.64 -0.37,1.66 0.64,1.53 0.52,-0.07 1.06,-0.39 1.43,-0.66 0.37,-0.27 0.32,-0.25 -0.06,-0.23 -0.29,0.11 -0.57,0.26 -0.86,0.29 z"
   id="path155" />
		<path
   class="st39"
   d="m 973.53,61.02 c -0.34,-0.39 -0.08,-1.16 0.36,-1.46 0.78,-0.53 2.13,-0.89 2.97,-1.23 0.49,-0.2 0.93,-0.48 -0.11,-0.19 -0.71,0.21 -2.1,0.5 -3.11,0.96 -0.48,0.22 -0.88,0.52 -1.16,0.87 -0.47,0.6 -0.53,1.61 0.48,1.59 0.52,-0.01 1.1,-0.28 1.49,-0.5 0.39,-0.23 0.34,-0.22 -0.03,-0.23 -0.3,0.08 -0.6,0.2 -0.89,0.19 z"
   id="path156" />
		<path
   class="st39"
   d="m 992.06,104.93 c -0.07,-0.52 0.55,-1.01 1.08,-1 0.93,0.01 2.25,0.5 3.12,0.7 0.51,0.12 1.03,0.14 0.01,-0.22 -0.71,-0.24 -2.02,-0.8 -3.1,-1 -0.52,-0.09 -1.01,-0.08 -1.43,0.05 -0.71,0.22 -1.3,1.03 -0.45,1.6 0.44,0.29 1.06,0.41 1.5,0.45 0.45,0.04 0.4,0.02 0.1,-0.21 -0.28,-0.12 -0.6,-0.2 -0.83,-0.37 z"
   id="path157" />
		<path
   class="st39"
   d="m 981.38,78.24 c -0.22,-0.35 0.06,-0.93 0.44,-1.11 0.67,-0.33 1.79,-0.44 2.48,-0.62 0.41,-0.1 0.79,-0.27 -0.07,-0.16 -0.59,0.08 -1.72,0.14 -2.56,0.39 -0.41,0.12 -0.76,0.31 -1.01,0.55 -0.44,0.41 -0.6,1.21 0.2,1.31 0.41,0.05 0.9,-0.09 1.23,-0.22 0.33,-0.14 0.3,-0.13 0,-0.19 -0.23,0.03 -0.48,0.09 -0.71,0.05 z"
   id="path158" />
		<path
   class="st39"
   d="m 991.25,79.26 c -0.12,-0.4 0.31,-0.87 0.73,-0.93 0.73,-0.11 1.83,0.1 2.55,0.14 0.42,0.02 0.83,-0.03 -0.02,-0.18 -0.59,-0.09 -1.69,-0.37 -2.56,-0.38 -0.42,-0.01 -0.81,0.07 -1.12,0.23 -0.53,0.27 -0.9,0.99 -0.16,1.32 0.38,0.17 0.89,0.18 1.24,0.15 0.36,-0.03 0.32,-0.04 0.05,-0.18 -0.25,-0.05 -0.5,-0.07 -0.71,-0.17 z"
   id="path159" />
		<path
   class="st39"
   d="m 984.05,89.19 c -0.23,-0.6 0.38,-1.37 1.01,-1.52 1.11,-0.26 2.82,-0.07 3.92,-0.09 0.64,-0.01 1.27,-0.14 -0.05,-0.27 -0.91,-0.07 -2.62,-0.36 -3.97,-0.27 -0.64,0.04 -1.23,0.21 -1.69,0.49 -0.78,0.48 -1.27,1.62 -0.1,2.04 0.61,0.22 1.38,0.17 1.92,0.09 0.54,-0.09 0.48,-0.1 0.06,-0.28 -0.37,-0.05 -0.77,-0.05 -1.1,-0.19 z"
   id="path160" />
		<path
   class="st39"
   d="m 980.56,65.76 c -0.37,-0.51 0.01,-1.43 0.58,-1.74 1,-0.56 2.7,-0.86 3.75,-1.19 0.62,-0.19 1.19,-0.49 -0.12,-0.24 -0.89,0.18 -2.62,0.39 -3.89,0.85 -0.61,0.22 -1.13,0.55 -1.5,0.94 -0.63,0.68 -0.8,1.92 0.43,1.99 0.64,0.04 1.37,-0.22 1.87,-0.45 0.5,-0.24 0.44,-0.23 -0.02,-0.29 -0.37,0.06 -0.75,0.17 -1.1,0.13 z"
   id="path161" />
		<path
   class="st39"
   d="m 974.56,125.59 c -0.08,-0.41 0.4,-0.83 0.81,-0.85 0.74,-0.04 1.81,0.29 2.52,0.41 0.41,0.07 0.83,0.06 -0.01,-0.18 -0.57,-0.15 -1.64,-0.54 -2.51,-0.65 -0.42,-0.05 -0.81,-0.01 -1.14,0.11 -0.56,0.21 -0.99,0.89 -0.29,1.3 0.36,0.21 0.86,0.27 1.22,0.28 0.36,0.01 0.32,0 0.07,-0.17 -0.22,-0.08 -0.47,-0.12 -0.67,-0.25 z"
   id="path162" />
		<path
   class="st39"
   d="m 989.72,135 c -0.08,-0.41 0.4,-0.83 0.81,-0.85 0.74,-0.04 1.81,0.29 2.52,0.41 0.41,0.07 0.83,0.06 -0.01,-0.18 -0.57,-0.15 -1.64,-0.54 -2.51,-0.65 -0.42,-0.05 -0.81,-0.01 -1.14,0.11 -0.56,0.21 -0.99,0.89 -0.29,1.3 0.36,0.21 0.86,0.27 1.22,0.28 0.36,0.01 0.32,0 0.07,-0.17 -0.22,-0.08 -0.47,-0.13 -0.67,-0.25 z"
   id="path163" />
		<path
   class="st39"
   d="m 992.57,143.66 c -0.08,-0.41 0.4,-0.83 0.81,-0.85 0.74,-0.04 1.81,0.29 2.52,0.41 0.41,0.07 0.83,0.06 -0.01,-0.18 -0.57,-0.15 -1.64,-0.54 -2.51,-0.65 -0.42,-0.05 -0.81,-0.01 -1.14,0.11 -0.56,0.21 -0.99,0.89 -0.29,1.3 0.36,0.21 0.86,0.27 1.22,0.28 0.36,0.01 0.32,0 0.07,-0.17 -0.22,-0.07 -0.47,-0.12 -0.67,-0.25 z"
   id="path164" />
		<path
   class="st39"
   d="m 992.6,158.48 c -0.08,-0.41 0.4,-0.83 0.81,-0.85 0.74,-0.04 1.81,0.29 2.52,0.41 0.41,0.07 0.83,0.06 -0.01,-0.18 -0.57,-0.15 -1.64,-0.54 -2.51,-0.65 -0.42,-0.05 -0.81,-0.01 -1.14,0.11 -0.56,0.21 -0.99,0.89 -0.29,1.3 0.36,0.21 0.86,0.27 1.22,0.28 0.36,0.01 0.32,0 0.07,-0.17 -0.22,-0.08 -0.47,-0.12 -0.67,-0.25 z"
   id="path165" />
		<path
   class="st39"
   d="m 976.77,104.04 c -0.09,-0.41 0.37,-0.85 0.78,-0.88 0.74,-0.06 1.82,0.22 2.53,0.31 0.42,0.05 0.83,0.03 -0.01,-0.18 -0.58,-0.13 -1.66,-0.48 -2.53,-0.55 -0.42,-0.03 -0.81,0.02 -1.13,0.15 -0.55,0.23 -0.96,0.92 -0.24,1.31 0.37,0.2 0.87,0.24 1.23,0.24 0.36,-0.01 0.32,-0.02 0.06,-0.18 -0.23,-0.06 -0.49,-0.1 -0.69,-0.22 z"
   id="path166" />
		<path
   class="st39"
   d="m 991.97,187.49 c -0.01,-0.52 0.68,-0.93 1.2,-0.85 0.92,0.14 2.16,0.81 3.01,1.12 0.49,0.19 1.01,0.28 0.03,-0.22 -0.67,-0.33 -1.9,-1.07 -2.94,-1.42 -0.5,-0.17 -1,-0.22 -1.42,-0.14 -0.73,0.12 -1.42,0.85 -0.65,1.52 0.4,0.35 1,0.55 1.43,0.65 0.44,0.1 0.4,0.07 0.12,-0.2 -0.27,-0.14 -0.57,-0.26 -0.78,-0.46 z"
   id="path167" />
		<path
   class="st39"
   d="m 982.62,202.83 c 0,-0.4 0.52,-0.71 0.92,-0.65 0.71,0.11 1.67,0.62 2.32,0.87 0.38,0.14 0.78,0.22 0.03,-0.17 -0.52,-0.26 -1.46,-0.83 -2.27,-1.09 -0.39,-0.13 -0.77,-0.17 -1.1,-0.11 -0.56,0.1 -1.1,0.65 -0.5,1.17 0.31,0.27 0.77,0.42 1.11,0.5 0.34,0.07 0.3,0.06 0.09,-0.15 -0.2,-0.12 -0.43,-0.21 -0.6,-0.37 z"
   id="path168" />
		<path
   class="st39"
   d="m 974.47,193.94 c 0,-0.4 0.52,-0.71 0.92,-0.65 0.71,0.11 1.67,0.62 2.32,0.87 0.38,0.14 0.78,0.22 0.03,-0.17 -0.52,-0.26 -1.46,-0.83 -2.27,-1.09 -0.39,-0.13 -0.77,-0.17 -1.1,-0.11 -0.56,0.1 -1.1,0.65 -0.5,1.17 0.31,0.27 0.77,0.42 1.11,0.5 0.34,0.07 0.3,0.06 0.09,-0.15 -0.21,-0.12 -0.44,-0.21 -0.6,-0.37 z"
   id="path169" />
		<path
   class="st39"
   d="m 977.61,145.3 c -0.01,-0.52 0.68,-0.93 1.2,-0.85 0.92,0.14 2.16,0.81 3.01,1.12 0.49,0.19 1.01,0.28 0.03,-0.22 -0.67,-0.33 -1.9,-1.07 -2.94,-1.42 -0.5,-0.17 -1,-0.22 -1.42,-0.14 -0.73,0.12 -1.42,0.85 -0.65,1.52 0.4,0.35 1,0.55 1.43,0.65 0.44,0.1 0.4,0.07 0.12,-0.2 -0.27,-0.14 -0.57,-0.25 -0.78,-0.46 z"
   id="path170" />
		<path
   class="st39"
   d="m 856.98,93.97 c -0.04,0.52 -0.75,0.86 -1.26,0.74 -0.91,-0.22 -2.09,-0.99 -2.91,-1.38 -0.48,-0.23 -0.98,-0.36 -0.05,0.22 0.64,0.39 1.81,1.23 2.82,1.66 0.49,0.21 0.97,0.3 1.41,0.26 0.74,-0.06 1.49,-0.72 0.77,-1.46 -0.37,-0.38 -0.95,-0.63 -1.38,-0.77 -0.43,-0.13 -0.39,-0.11 -0.14,0.19 0.26,0.18 0.55,0.32 0.74,0.54 z"
   id="path171" />
		<path
   class="st39"
   d="m 851.18,106.91 c -0.04,0.52 -0.75,0.86 -1.26,0.74 -0.91,-0.22 -2.09,-0.99 -2.91,-1.38 -0.48,-0.23 -0.98,-0.36 -0.05,0.22 0.64,0.39 1.81,1.23 2.82,1.66 0.49,0.21 0.97,0.3 1.41,0.26 0.74,-0.06 1.49,-0.72 0.77,-1.46 -0.37,-0.38 -0.95,-0.63 -1.38,-0.77 -0.43,-0.13 -0.39,-0.11 -0.14,0.19 0.26,0.18 0.55,0.32 0.74,0.54 z"
   id="path172" />
		<path
   class="st39"
   d="m 855.36,50.75 c -0.16,0.34 -0.72,0.36 -1.03,0.14 -0.54,-0.4 -1.13,-1.24 -1.57,-1.73 -0.26,-0.28 -0.55,-0.52 -0.09,0.13 0.32,0.44 0.88,1.32 1.43,1.89 0.27,0.27 0.57,0.47 0.86,0.57 0.5,0.17 1.17,-0.06 0.89,-0.75 -0.15,-0.36 -0.47,-0.69 -0.71,-0.9 -0.25,-0.21 -0.23,-0.18 -0.14,0.08 0.14,0.19 0.29,0.37 0.36,0.57 z"
   id="path173" />
		<path
   class="st39"
   d="m 850.76,79.81 c -0.08,0.36 -0.62,0.53 -0.97,0.38 -0.62,-0.26 -1.37,-0.94 -1.91,-1.3 -0.31,-0.21 -0.66,-0.37 -0.06,0.15 0.41,0.35 1.15,1.07 1.82,1.49 0.32,0.2 0.66,0.32 0.97,0.35 0.53,0.04 1.13,-0.34 0.7,-0.95 -0.22,-0.31 -0.61,-0.55 -0.89,-0.7 -0.29,-0.14 -0.26,-0.12 -0.12,0.12 0.15,0.15 0.34,0.28 0.46,0.46 z"
   id="path174" />
		<path
   class="st39"
   d="m 836.87,96.53 c -0.08,0.36 -0.62,0.53 -0.97,0.38 -0.62,-0.26 -1.37,-0.94 -1.91,-1.3 -0.31,-0.21 -0.66,-0.37 -0.06,0.15 0.41,0.35 1.15,1.07 1.82,1.49 0.32,0.2 0.66,0.32 0.97,0.35 0.53,0.04 1.13,-0.34 0.7,-0.95 -0.22,-0.31 -0.61,-0.55 -0.89,-0.7 -0.29,-0.14 -0.26,-0.12 -0.12,0.12 0.16,0.15 0.35,0.28 0.46,0.46 z"
   id="path175" />
		<path
   class="st39"
   d="m 860.95,68.22 c 0.22,-0.3 0.77,-0.21 1.03,0.07 0.46,0.5 0.88,1.44 1.22,2.01 0.2,0.33 0.45,0.62 0.11,-0.11 -0.24,-0.49 -0.62,-1.47 -1.06,-2.14 -0.21,-0.32 -0.47,-0.58 -0.74,-0.73 -0.46,-0.26 -1.16,-0.17 -1.01,0.56 0.08,0.38 0.33,0.77 0.53,1.02 0.21,0.26 0.19,0.22 0.15,-0.06 -0.07,-0.21 -0.19,-0.41 -0.23,-0.62 z"
   id="path176" />
		<path
   class="st39"
   d="m 874.29,57.1 c -0.26,0.25 -0.8,0.07 -1.01,-0.25 -0.37,-0.57 -0.63,-1.58 -0.88,-2.19 -0.14,-0.36 -0.34,-0.69 -0.13,0.09 0.15,0.53 0.37,1.56 0.7,2.3 0.16,0.36 0.37,0.65 0.61,0.85 0.41,0.34 1.12,0.37 1.09,-0.38 -0.01,-0.39 -0.2,-0.81 -0.36,-1.1 -0.16,-0.29 -0.15,-0.25 -0.16,0.03 0.06,0.21 0.15,0.44 0.14,0.65 z"
   id="path177" />
		<path
   class="st39"
   d="m 870.65,34.23 c -0.26,0.25 -0.8,0.07 -1.01,-0.25 -0.37,-0.57 -0.63,-1.58 -0.88,-2.19 -0.14,-0.36 -0.34,-0.69 -0.13,0.09 0.15,0.53 0.37,1.56 0.7,2.3 0.16,0.36 0.37,0.65 0.61,0.85 0.41,0.34 1.12,0.37 1.09,-0.38 -0.02,-0.39 -0.2,-0.81 -0.36,-1.1 -0.16,-0.29 -0.15,-0.25 -0.16,0.03 0.06,0.21 0.14,0.44 0.14,0.65 z"
   id="path178" />
		<path
   class="st39"
   d="m 904.17,20.87 c -0.34,0.11 -0.75,-0.29 -0.8,-0.68 -0.1,-0.68 0.09,-1.71 0.13,-2.37 0.02,-0.39 -0.02,-0.77 -0.15,0.02 -0.08,0.55 -0.32,1.57 -0.33,2.38 -0.01,0.39 0.06,0.75 0.2,1.04 0.23,0.5 0.85,0.84 1.14,0.15 0.15,-0.36 0.16,-0.82 0.14,-1.15 -0.03,-0.33 -0.03,-0.3 -0.16,-0.05 -0.06,0.23 -0.08,0.47 -0.17,0.66 z"
   id="path179" />
		<path
   class="st39"
   d="m 893.88,19.59 c -0.34,0.11 -0.75,-0.29 -0.8,-0.68 -0.1,-0.68 0.09,-1.71 0.13,-2.37 0.02,-0.39 -0.02,-0.77 -0.15,0.02 -0.08,0.55 -0.32,1.57 -0.33,2.38 -0.01,0.39 0.06,0.75 0.2,1.04 0.23,0.5 0.85,0.84 1.14,0.15 0.15,-0.36 0.16,-0.82 0.14,-1.15 -0.03,-0.33 -0.03,-0.3 -0.16,-0.05 -0.06,0.23 -0.08,0.47 -0.17,0.66 z"
   id="path180" />
		<path
   class="st39"
   d="m 856.26,62.37 c -0.12,0.51 -0.87,0.73 -1.36,0.52 -0.86,-0.37 -1.91,-1.33 -2.65,-1.85 -0.44,-0.3 -0.91,-0.53 -0.08,0.21 0.57,0.49 1.59,1.52 2.52,2.12 0.45,0.29 0.91,0.46 1.35,0.5 0.74,0.07 1.58,-0.46 0.99,-1.31 -0.31,-0.44 -0.84,-0.78 -1.24,-0.99 -0.4,-0.2 -0.37,-0.17 -0.17,0.16 0.21,0.19 0.48,0.38 0.64,0.64 z"
   id="path181" />
		<path
   class="st39"
   d="m 843.54,69.58 c -0.12,0.51 -0.87,0.73 -1.36,0.52 -0.86,-0.37 -1.91,-1.33 -2.65,-1.85 -0.44,-0.3 -0.91,-0.53 -0.08,0.21 0.57,0.49 1.59,1.52 2.52,2.12 0.45,0.29 0.91,0.46 1.35,0.5 0.74,0.07 1.58,-0.46 0.99,-1.31 -0.31,-0.44 -0.84,-0.78 -1.24,-0.99 -0.4,-0.2 -0.37,-0.17 -0.17,0.16 0.22,0.2 0.48,0.39 0.64,0.64 z"
   id="path182" />
		<path
   class="st39"
   d="m 848.39,129.14 c 0.06,0.43 -0.45,0.84 -0.88,0.84 -0.77,0 -1.86,-0.4 -2.59,-0.56 -0.43,-0.09 -0.86,-0.11 0,0.18 0.59,0.19 1.67,0.65 2.57,0.81 0.43,0.08 0.84,0.06 1.18,-0.05 0.59,-0.19 1.07,-0.86 0.36,-1.33 -0.37,-0.24 -0.88,-0.33 -1.25,-0.36 -0.37,-0.03 -0.33,-0.01 -0.08,0.18 0.23,0.09 0.49,0.15 0.69,0.29 z"
   id="path183" />
		<path
   class="st39"
   d="m 837.14,131.99 c 0.06,0.43 -0.45,0.84 -0.89,0.84 -0.77,0 -1.86,-0.4 -2.59,-0.56 -0.43,-0.09 -0.86,-0.11 0,0.18 0.59,0.19 1.67,0.65 2.57,0.81 0.43,0.08 0.84,0.06 1.18,-0.05 0.58,-0.19 1.07,-0.86 0.36,-1.33 -0.37,-0.24 -0.88,-0.33 -1.25,-0.36 -0.37,-0.03 -0.33,-0.01 -0.08,0.18 0.24,0.08 0.5,0.15 0.7,0.29 z"
   id="path184" />
		<path
   class="st39"
   d="m 837.63,186.9 c 0.06,0.47 -0.51,0.91 -0.98,0.9 -0.84,-0.02 -2.02,-0.47 -2.81,-0.65 -0.46,-0.11 -0.93,-0.13 -0.01,0.2 0.63,0.22 1.81,0.74 2.78,0.92 0.47,0.09 0.91,0.08 1.29,-0.04 0.64,-0.2 1.18,-0.92 0.42,-1.43 -0.39,-0.27 -0.95,-0.37 -1.35,-0.41 -0.4,-0.03 -0.36,-0.02 -0.09,0.19 0.26,0.09 0.54,0.16 0.75,0.32 z"
   id="path185" />
		<path
   class="st39"
   d="m 845.07,211.07 c 0.04,0.58 -0.7,1.07 -1.28,1.02 -1.03,-0.09 -2.46,-0.75 -3.41,-1.05 -0.56,-0.17 -1.14,-0.24 -0.02,0.25 0.77,0.32 2.17,1.06 3.36,1.38 0.57,0.15 1.12,0.17 1.59,0.06 0.8,-0.19 1.53,-1.04 0.63,-1.74 -0.47,-0.36 -1.15,-0.54 -1.63,-0.63 -0.49,-0.08 -0.44,-0.06 -0.12,0.23 0.29,0.15 0.63,0.26 0.88,0.48 z"
   id="path186" />
		<path
   class="st39"
   d="m 880.36,31.3 c -0.49,0.28 -1.24,-0.21 -1.44,-0.78 -0.36,-1.02 -0.38,-2.65 -0.52,-3.69 -0.09,-0.61 -0.27,-1.18 -0.23,0.08 0.04,0.87 -0.02,2.52 0.21,3.77 0.11,0.6 0.32,1.14 0.62,1.54 0.5,0.69 1.56,1.02 1.79,-0.14 0.12,-0.6 -0.01,-1.32 -0.14,-1.82 -0.14,-0.5 -0.14,-0.45 -0.25,-0.02 -0.01,0.37 0.04,0.74 -0.04,1.06 z"
   id="path187" />
		<path
   class="st39"
   d="m 870.76,44.8 c -0.52,0.59 -1.54,0.29 -2.04,-0.35 -0.88,-1.15 -1.59,-3.23 -2.21,-4.5 -0.36,-0.74 -0.84,-1.4 -0.26,0.21 0.41,1.09 1.03,3.24 1.85,4.75 0.39,0.73 0.89,1.32 1.44,1.7 0.93,0.65 2.29,0.6 2.11,-0.98 -0.09,-0.82 -0.56,-1.69 -0.94,-2.27 -0.39,-0.58 -0.36,-0.51 -0.33,0.09 0.13,0.44 0.35,0.9 0.38,1.35 z"
   id="path188" />
		<path
   class="st39"
   d="m 989.01,194.42 c -1.99,-3.89 -2.62,-5.11 -5.48,-9.97 -0.56,-0.27 -0.94,-0.21 -1.11,-0.3 -0.09,-0.04 -0.1,-0.03 -0.06,0.04 0.94,1.29 4.49,7.73 5.41,9.66 z"
   id="path189" />
		<path
   class="st39"
   d="m 994.38,168.54 c -1.99,-3.89 -2.62,-5.11 -5.48,-9.97 -0.56,-0.27 -0.94,-0.21 -1.11,-0.3 -0.09,-0.04 -0.1,-0.03 -0.06,0.04 0.94,1.29 4.49,7.73 5.41,9.66 z"
   id="path190" />
		<path
   class="st39"
   d="m 962.52,55.95 -0.56,0.16 c 0.12,-0.16 0.26,-0.5 0.27,-0.73 -0.11,-0.43 -0.74,-0.42 -1.29,-0.42 -0.16,0.57 0.26,1.76 0.83,1.98 0.73,0.29 1.21,0.39 1.66,0.53 l -1.01,0.48 c -1.53,-0.5 -2.68,-0.85 -4.37,-1.31 l 0.88,-0.51 1.31,0.37 c -0.11,-0.34 -0.34,-0.84 -0.23,-1.48 0.17,-0.57 3.15,-1.07 3.14,-0.08 -0.02,0.4 -0.33,0.85 -0.63,1.01 z"
   id="path191" />
		<path
   class="st39"
   d="m 852.58,142.5 0.5,0.31 c -0.19,0.03 -0.53,0.15 -0.69,0.3 -0.22,0.38 0.23,0.85 0.61,1.26 0.5,-0.28 1.03,-1.42 0.79,-2 -0.31,-0.75 -0.57,-1.18 -0.79,-1.61 l 1.04,0.42 c 0.72,1.48 1.27,2.59 2.14,4.18 l -0.96,-0.3 -0.65,-1.23 c -0.15,0.32 -0.34,0.83 -0.86,1.2 -0.51,0.28 -2.93,-1.61 -2.24,-2.29 0.26,-0.27 0.78,-0.35 1.11,-0.24 z"
   id="path192" />
		<path
   class="st39"
   d="m 989.92,112.82 -0.53,-0.39 c 0.21,-0.01 0.59,-0.12 0.79,-0.27 0.27,-0.39 -0.18,-0.95 -0.57,-1.44 -0.58,0.26 -1.26,1.47 -1.04,2.13 0.28,0.85 0.53,1.35 0.73,1.84 l -1.11,-0.56 c -0.67,-1.7 -1.18,-2.97 -2,-4.8 l 1.03,0.42 0.61,1.42 c 0.2,-0.34 0.45,-0.89 1.05,-1.24 0.59,-0.26 3.09,2.04 2.28,2.73 -0.31,0.27 -0.89,0.31 -1.24,0.16 z"
   id="path193" />
		<path
   class="st39"
   d="m 978.83,55.68 c 0.1,-0.29 0.12,-1.19 0.07,-1.38 0.07,-0.02 0.69,-0.3 1.02,-0.32 0.36,-0.02 0.41,0.18 0.37,0.6 -0.1,1 -0.75,1.94 -1.6,2.77 -0.33,0.3 -0.21,0.2 0.19,0.03 0.83,-0.35 1.7,-0.72 2.61,-0.65 0.84,0.08 1.06,0.76 0.54,1.49 l -0.86,0.1 c 0.16,-0.2 0.23,-0.6 0.2,-0.81 -0.2,-0.79 -1.77,-0.07 -2.19,0.09 -0.59,0.23 -1.15,0.47 -1.78,0.45 -0.13,-0.01 -0.15,-0.11 -0.02,-0.25 0.88,-0.85 1.5,-1.47 1.7,-2.08 -0.07,-0.06 -0.07,-0.02 -0.25,-0.04 z"
   id="path194" />
		<path
   class="st39"
   d="m 961,37.4 c -0.08,-0.3 -0.54,-1.05 -0.69,-1.18 0.05,-0.06 0.41,-0.65 0.68,-0.86 0.29,-0.22 0.43,-0.09 0.63,0.28 0.46,0.89 0.43,2.04 0.17,3.23 -0.11,0.44 -0.07,0.29 0.17,-0.09 0.5,-0.77 1.02,-1.59 1.81,-2.07 0.74,-0.42 1.29,0.01 1.25,0.91 l -0.66,0.59 c 0.02,-0.26 -0.13,-0.63 -0.27,-0.78 -0.59,-0.54 -1.5,0.97 -1.76,1.35 -0.36,0.53 -0.7,1.06 -1.24,1.41 -0.11,0.07 -0.19,-0.01 -0.15,-0.2 0.27,-1.21 0.44,-2.09 0.28,-2.71 -0.08,0 -0.07,0.03 -0.22,0.12 z"
   id="path195" />
		<path
   class="st39"
   d="m 970.68,45.11 c 0,-0.31 -0.25,-1.16 -0.37,-1.33 0.06,-0.04 0.56,-0.52 0.87,-0.65 0.33,-0.14 0.44,0.03 0.54,0.44 0.21,0.98 -0.1,2.09 -0.65,3.16 -0.22,0.4 -0.14,0.26 0.19,-0.04 0.67,-0.61 1.39,-1.25 2.27,-1.5 0.82,-0.21 1.24,0.36 0.98,1.22 l -0.78,0.39 c 0.09,-0.24 0.03,-0.64 -0.07,-0.83 -0.43,-0.68 -1.69,0.53 -2.04,0.82 -0.48,0.41 -0.94,0.83 -1.55,1.02 -0.12,0.04 -0.18,-0.06 -0.09,-0.23 0.57,-1.1 0.96,-1.9 0.96,-2.54 -0.09,-0.01 -0.08,0.03 -0.26,0.07 z"
   id="path196" />
		<path
   class="st4"
   d="m 999.37,227.6 -30.97,-0.11 0.01,-114.76 c 0.31,-6.72 -1.99,-10.86 -3.98,-13.16 l -0.3,-0.35 0.3,-0.35 c 1.28,-1.51 2.25,-3.3 2.87,-5.31 2.27,-7.34 -0.6,-15.9 -4.6,-20.57 l -0.03,-0.04 C 952.53,58.7 933.17,45.5 915.59,40.84 l -1.43,-0.38 -1.44,0.32 c -9.86,2.19 -22.69,9.09 -33.5,18.02 -5.4,4.46 -9.97,9.19 -13.2,13.66 -4.01,5.54 -6.04,10.75 -6.04,15.47 0,4.13 1.37,8.05 3.86,11.05 l 0.28,0.34 -0.28,0.34 c -2.18,2.7 -3.33,6.2 -3.33,10.13 l 0.04,117.51 -31.11,0.02 -0.33,-128.88 c -0.6,-15.91 -0.97,-25.5 7.83,-39.71 7.57,-12.24 20.57,-24.71 36.58,-35.14 6.33,-4.12 12.83,-7.73 19.32,-10.71 l 0.13,-0.06 c 0.1,-0.04 0.19,-0.08 0.27,-0.12 l 0.23,-0.11 c 0.06,-0.03 0.12,-0.06 0.19,-0.08 l 0.03,-0.02 c 7.73,-3.46 14.88,-5.72 21.28,-6.72 l 0.11,-0.02 0.11,0.03 c 0.55,0.14 1.15,0.3 1.76,0.47 l 2.04,0.58 c 6.85,1.93 14.22,4.67 21.34,7.92 4.8,2.2 9.42,4.59 13.74,7.11 11.91,6.96 21.64,14.88 28.93,23.53 2.6,3.08 4.92,6.29 6.89,9.55 8.86,14.59 10.2,21.72 10.21,38.68 v 0 z m -29.89,-1.18 28.83,0.1 0.72,-132.91 c -0.01,-16.72 -1.33,-23.75 -10.06,-38.12 -1.95,-3.21 -4.23,-6.37 -6.8,-9.41 -7.21,-8.56 -16.85,-16.4 -28.65,-23.3 -4.28,-2.5 -8.87,-4.88 -13.64,-7.06 C 932.82,12.5 925.49,9.78 918.7,7.86 l -2.03,-0.57 c -0.57,-0.16 -1.11,-0.3 -1.63,-0.43 -6.27,0.99 -13.3,3.22 -20.89,6.62 l -0.08,0.04 c -0.05,0.02 -0.1,0.04 -0.14,0.06 l -0.24,0.11 c -0.09,0.04 -0.18,0.08 -0.27,0.12 l -0.12,0.06 c -6.45,2.97 -12.9,6.54 -19.19,10.64 -15.89,10.34 -28.76,22.7 -36.25,34.8 -8.62,13.93 -8.26,23.4 -7.67,39.09 v 0.06 l 0.33,127.81 28.97,-0.02 -0.04,-116.44 c 0,-4.01 1.14,-7.62 3.3,-10.46 -2.47,-3.14 -3.83,-7.17 -3.83,-11.4 0,-4.96 2.1,-10.37 6.25,-16.1 3.29,-4.54 7.92,-9.34 13.39,-13.86 10.93,-9.03 23.93,-16.02 33.95,-18.24 l 1.69,-0.38 1.68,0.44 c 17.8,4.72 37.4,18.08 47.67,32.51 4.18,4.89 7.17,13.87 4.79,21.57 -0.62,2 -1.55,3.79 -2.79,5.34 2.04,2.51 4.26,6.81 3.94,13.54 z"
   id="path197" />
	</g>
	
	
	
</g>
</svg>
