<svg id="Layer_1" data-name="Layer 1" xmlns="http://www.w3.org/2000/svg" xmlns:xlink="http://www.w3.org/1999/xlink" viewBox="0 0 900.85 887.89"><defs><style>.cls-1{fill:#123d64;}.cls-2{fill:url(#linear-gradient);}.cls-3{fill:#0d8f75;}.cls-4{fill:url(#linear-gradient-2);}.cls-5{fill:url(#linear-gradient-3);}.cls-6{fill:url(#linear-gradient-4);}.cls-7{fill:url(#linear-gradient-5);}.cls-8{clip-path:url(#clip-path);}</style><linearGradient id="linear-gradient" x1="450.42" y1="1309.27" x2="450.42" y2="1622.28" gradientTransform="matrix(1, 0, 0, -1, 0, 1704)" gradientUnits="userSpaceOnUse"><stop offset="0" stop-color="#123d64"/><stop offset="1" stop-color="#0d8f75"/></linearGradient><linearGradient id="linear-gradient-2" x1="12520.5" y1="1606.12" x2="12520.5" y2="713.4" gradientTransform="translate(-2735.7 84.16) scale(0.24)" xlink:href="#linear-gradient"/><linearGradient id="linear-gradient-3" x1="13584.53" y1="1606.12" x2="13584.53" y2="713.4" gradientTransform="translate(-2735.7 84.16) scale(0.24)" xlink:href="#linear-gradient"/><linearGradient id="linear-gradient-4" x1="11655.89" y1="1595.29" x2="11655.89" y2="702.56" gradientTransform="translate(-2735.7 84.16) scale(0.24)" xlink:href="#linear-gradient"/><linearGradient id="linear-gradient-5" x1="14449.14" y1="1595.29" x2="14449.14" y2="702.56" gradientTransform="translate(-2735.7 84.16) scale(0.24)" xlink:href="#linear-gradient"/><clipPath id="clip-path"><path class="cls-1" d="M849.3,853.31a31.76,31.76,0,0,0,4.16,15.55H842v19h58.82v-19H872.49c-2.09-3.79-3.48-7.61-3.48-11.39,0-8.3,5.88-11.77,14.18-11.77a47.93,47.93,0,0,1,11.09,1.38l3.44-18.33a87.11,87.11,0,0,0-17.63-2.08c-18.69,0-30.79,10.73-30.79,26.64m-696.82-173v83.71c0,43.59-21.1,58.46-55,58.46s-55-17.64-55-51.88c0-13.83,2.77-27.34,10-46L16.88,712.17c-11.06,24.57-15.55,45.31-15.55,64,0,42.2,29.39,84.05,95.12,84.05,56.74,0,96.85-27,96.85-85.79V680.35Zm-74-44.27c0,12.44,9,22.13,22.14,22.13S122,648.52,122,636.08c0-12.81-8.3-21.8-21.44-21.8s-22.14,9-22.14,21.8M239,572.59V735c0,43.59,20.06,64.68,76.8,64.68h33.42c27.32,0,43.57-6.55,53.26-16.24,11.42,12.79,29.4,16.24,49.13,16.24,21.44,0,37.35-4.83,49.8-15.91,11.75,10.74,28.72,15.91,46.71,15.91,22.13,0,40.12-7.27,51.19-20.4,9.34,13.13,25.25,20.4,50.5,20.4H801.23c19.37-86.13-1.73-148.39-86.82-148.39-11.41,0-30.43,1.73-47.4,8l9,34.6C688.48,690.73,699.18,689,711,689c54,0,59.85,43.93,54.65,74H649.77c-23.16,0-37-10.73-37-34.94v-73H571.94v72.64c0,24.21-5.53,35.28-28.36,35.28-18.35,0-27.67-7.6-27.67-23.17v-59.5H475.09v48.42c0,25.25-7.26,34.25-28.72,34.25-16.25,0-27-6.21-27-23.17v-59.5H378.57v48.42C378.57,754,371,763,349.18,763H315.76c-25.26,0-36-9-36-29.06V572.59ZM851.38,799.68h40.81V572.58H851.38Z"/></clipPath></defs><g id="ملون"><path class="cls-2" d="M450.42,81.71a240,240,0,0,0,0,313,240,240,0,0,0,0-313Z"/><path class="cls-3" d="M430.06,0C314,9.71,221.31,102,211.05,217.91,327.17,208.2,419.8,116,430.06,0Z"/><path class="cls-3" d="M689.79,217.91C679.53,102,586.9,9.71,470.78,0,481,116,573.68,208.2,689.79,217.91Z"/><path class="cls-4" d="M430.06,476.55c-10.26-115.9-102.89-208.2-219-217.92C221.31,374.53,314,466.84,430.06,476.55Z"/><path class="cls-5" d="M689.79,258.63c-116.11,9.72-208.75,102-219,217.92C586.9,466.84,679.53,374.53,689.79,258.63Z"/><path class="cls-6" d="M219,473.9C208.75,358,116.12,265.7,0,256,10.26,371.89,102.89,464.19,219,473.9Z"/><path class="cls-7" d="M900.85,256c-116.12,9.71-208.75,102-219,217.91C798,464.19,890.58,371.89,900.85,256Z"/><path class="cls-1" d="M849.3,853.31a31.76,31.76,0,0,0,4.16,15.55H842v19h58.82v-19H872.49c-2.09-3.79-3.48-7.61-3.48-11.39,0-8.3,5.88-11.77,14.18-11.77a47.93,47.93,0,0,1,11.09,1.38l3.44-18.33a87.11,87.11,0,0,0-17.63-2.08c-18.69,0-30.79,10.73-30.79,26.64m-696.82-173v83.71c0,43.59-21.1,58.46-55,58.46s-55-17.64-55-51.88c0-13.83,2.77-27.34,10-46L16.88,712.17c-11.06,24.57-15.55,45.31-15.55,64,0,42.2,29.39,84.05,95.12,84.05,56.74,0,96.85-27,96.85-85.79V680.35Zm-74-44.27c0,12.44,9,22.13,22.14,22.13S122,648.52,122,636.08c0-12.81-8.3-21.8-21.44-21.8s-22.14,9-22.14,21.8M239,572.59V735c0,43.59,20.06,64.68,76.8,64.68h33.42c27.32,0,43.57-6.55,53.26-16.24,11.42,12.79,29.4,16.24,49.13,16.24,21.44,0,37.35-4.83,49.8-15.91,11.75,10.74,28.72,15.91,46.71,15.91,22.13,0,40.12-7.27,51.19-20.4,9.34,13.13,25.25,20.4,50.5,20.4H801.23c19.37-86.13-1.73-148.39-86.82-148.39-11.41,0-30.43,1.73-47.4,8l9,34.6C688.48,690.73,699.18,689,711,689c54,0,59.85,43.93,54.65,74H649.77c-23.16,0-37-10.73-37-34.94v-73H571.94v72.64c0,24.21-5.53,35.28-28.36,35.28-18.35,0-27.67-7.6-27.67-23.17v-59.5H475.09v48.42c0,25.25-7.26,34.25-28.72,34.25-16.25,0-27-6.21-27-23.17v-59.5H378.57v48.42C378.57,754,371,763,349.18,763H315.76c-25.26,0-36-9-36-29.06V572.59ZM851.38,799.68h40.81V572.58H851.38Z"/><g class="cls-8"><rect class="cls-1" x="1.33" y="572.58" width="899.52" height="315.32"/></g></g></svg>